<?xml version="1.0" standalone="no"?>
<!DOCTYPE svg PUBLIC "-//W3C//DTD SVG 1.1//EN" "http://www.w3.org/Graphics/SVG/1.1/DTD/svg11.dtd" >
<svg xmlns="http://www.w3.org/2000/svg">
<metadata></metadata>
<defs>
<font id="feliparegular" horiz-adv-x="839" >
<font-face units-per-em="2048" ascent="1638" descent="-410" />
<missing-glyph horiz-adv-x="524" />
<glyph horiz-adv-x="0" />
<glyph horiz-adv-x="682" />
<glyph unicode=" "  horiz-adv-x="524" />
<glyph unicode="&#x09;" horiz-adv-x="524" />
<glyph unicode="&#xa0;" horiz-adv-x="524" />
<glyph unicode="!" horiz-adv-x="733" d="M82 100l147 142q63 -50 138 -166l-144 -131q-2 2 -54.5 63.5t-86.5 91.5zM244 373q190 777 227 1304l172 107q-30 -217 -46 -324t-46 -273.5t-61 -279.5t-80.5 -259t-114.5 -296z" />
<glyph unicode="&#x22;" horiz-adv-x="757" d="M190 1360q1 11 3 64.5t3.5 77.5t5.5 74.5t8.5 82t12 72t17.5 71.5l139 -39q-21 -79 -51.5 -161.5t-64 -162t-44.5 -110.5zM539 1360q0 6 3 76.5t5 99t7.5 86t13.5 100.5t20 80l139 -39q-21 -79 -51.5 -161.5t-64 -162t-44.5 -110.5z" />
<glyph unicode="#" horiz-adv-x="1290" d="M117 326l110 110h195l51 379h-356l110 111h262l37 272l121 111l-53 -383h244l36 272l119 111l-53 -383h309l-110 -111h-213l-54 -379h342l-110 -110h-246l-49 -363l-119 -110l64 473h-242l-49 -363l-121 -110l64 473h-289zM526 436h244l51 379h-241z" />
<glyph unicode="$" horiz-adv-x="718" d="M-31 68l105 94q88 -76 196 -76q62 0 138 29q0 75 -23 148.5t-57 128.5t-74 110t-74 96.5t-57 84t-23 75.5q0 104 71 167.5t187 90.5l35 225l96 66l-38 -277q23 2 65 2q141 0 141 -24q-51 -72 -153 -117q-8 61 -101 61q-55 0 -115 -21.5t-85 -49.5q1 -38 36 -99.5 t84.5 -129t99 -138t84 -145.5t34.5 -133q0 -70 -60.5 -127.5t-154.5 -90.5l-41 -258l-97 -65l43 301q-50 -4 -65 -4q-72 0 -134.5 25t-62.5 51z" />
<glyph unicode="%" horiz-adv-x="1648" d="M80 1180q0 47 14.5 102t45.5 111t72.5 102t101 75t126.5 29q129 0 188.5 -82t59.5 -212q0 -96 -58 -189t-151.5 -151t-191.5 -58q-85 0 -146 73t-61 200zM127 55q75 98 261.5 337.5t311.5 402.5t298.5 410t310.5 470l100 -102q-160 -264 -547.5 -748t-695.5 -813z M184 1221q0 -228 152 -228q233 0 233 324q0 34 -8.5 70.5t-26.5 72t-51 58t-77 22.5q-97 0 -159.5 -97t-62.5 -222zM903 293q0 59 24.5 130t68 136.5t114.5 109.5t154 44q67 0 116 -23.5t77 -65.5t41 -93t13 -113q0 -96 -58 -189t-151.5 -151t-191.5 -58q-85 0 -146 73 t-61 200zM1008 334q0 -228 151 -228q234 0 234 324q0 34 -9 70.5t-26.5 72t-51 58t-77.5 22.5q-97 0 -159 -97t-62 -222z" />
<glyph unicode="&#x26;" horiz-adv-x="1429" d="M78 547q0 150 44 301.5t116.5 272.5t160 216.5t179.5 148t170 52.5q71 0 117 -41t46 -119q0 -148 -346 -360q296 26 547 26q10 0 274 -6l-124 -118q-53 4 -281 4q-6 -31 -33 -148.5t-42 -210t-15 -170.5q0 -256 166 -289q99 69 234.5 217.5t258.5 313.5l19 -12 q-164 -230 -334.5 -414.5t-282.5 -230.5q-50 0 -110.5 60t-81.5 185q-70 -83 -148.5 -151t-140.5 -90q-89 0 -158.5 32t-113 85t-71.5 127t-39 152t-11 167zM223 612q0 -127 20.5 -219t60.5 -149t92 -88t122 -43q91 21 236 163v46q0 169 32 327t78 273q-310 0 -585 -60 q-15 -6 -27 -12q-29 -126 -29 -238zM272 924q100 47 152 77l2 3h2q149 83 238 163t92 146q0 49 -28 77.5t-81 28.5q-91 0 -202.5 -146.5t-174.5 -348.5z" />
<glyph unicode="'" horiz-adv-x="450" d="M244 1360q0 6 3 76.5t5 99t7.5 86t13.5 100.5t20 80l139 -39q-21 -79 -51.5 -161.5t-64 -162t-44.5 -110.5z" />
<glyph unicode="(" horiz-adv-x="847" d="M233 743q34 285 184 546t357 382l23 -29q-149 -118 -271 -387t-153 -536q-18 -131 -12 -261t31.5 -241t82.5 -204.5t141 -151.5l-26 -31q-200 122 -296 365t-61 548z" />
<glyph unicode=")" horiz-adv-x="788" d="M61 -141q149 118 271 387t153 536q18 131 12 261t-31.5 241t-82.5 204.5t-141 151.5l26 31q200 -122 296 -365t61 -548q-34 -285 -184 -546t-357 -382z" />
<glyph unicode="*" horiz-adv-x="980" d="M178 1083l242 129l10 37q-198 152 -217 168l123 60l145 -168l23 12l20 203l123 51l-76 -256l15 -14l77.5 55t82 57t79.5 51l9 -145l-236 -82l-8 -29l188 -133l-102 -71l-129 141l-21 -8l-41 -209l-114 -33l84 246l-13 14l-241 -112z" />
<glyph unicode="+" horiz-adv-x="1271" d="M98 598l111 111h377v374l110 111v-485h498l-111 -111h-387v-389l-110 -111v500h-488z" />
<glyph unicode="," horiz-adv-x="557" d="M123 135q17 20 48 59t48.5 57.5t26.5 20.5q44 -35 85 -90t52 -80q-4 -31 -57 -126.5t-144 -211.5l-30 23q63 84 85.5 121.5t22.5 56.5q-13 19 -69.5 78.5t-67.5 91.5z" />
<glyph unicode="-" horiz-adv-x="819" d="M92 600l58 109q291 -3 616 65l-64 -110q-293 -67 -610 -64z" />
<glyph unicode="." horiz-adv-x="552" d="M125 133l147 141q64 -51 138 -165l-144 -132q-3 4 -55 65t-86 91z" />
<glyph unicode="/" horiz-adv-x="892" d="M115 -59q40 106 188 468.5t265 683.5t200 623l100 -102q-78 -258 -201.5 -583.5t-263 -674.5t-204.5 -526z" />
<glyph unicode="0" horiz-adv-x="1083" d="M86 379q0 182 74.5 340t204.5 252t284 94q89 0 156 -29.5t106 -82t58.5 -118t19.5 -143.5q0 -182 -84 -341.5t-223.5 -253t-296.5 -93.5q-78 0 -137 30t-93.5 82.5t-51.5 118.5t-17 144zM180 485q0 -171 88 -271t217 -105q82 2 149 35.5t110.5 86t73 121.5t42 138.5 t12.5 140.5q0 137 -86 241.5t-221 104.5q-98 0 -188.5 -75t-143.5 -189t-53 -228z" />
<glyph unicode="1" horiz-adv-x="651" d="M131 811q52 56 151 134t167 118q19 0 24.5 -19t5.5 -57q0 -51 -16 -151q-18 -124 -60 -370t-61 -374l-100 -125q-15 11 -15 45q0 129 22.5 280t56 331t48.5 305q-45 -23 -207 -142z" />
<glyph unicode="2" horiz-adv-x="901" d="M-29 31q39 19 70 43q103 83 164.5 135t149 139t155.5 174q100 128 100 244q0 178 -182 178q-67 0 -147.5 -24t-145.5 -58l-22 33q114 86 202.5 121t180.5 35q97 0 162 -51.5t65 -159.5q0 -172 -154 -365q-135 -171 -346 -334l4 -12h357q159 0 272 80l16 -31 q-135 -114 -223 -180l-663 2z" />
<glyph unicode="3" horiz-adv-x="866" d="M-123 -154l74 129q81 -41 172 -69.5t158 -28.5q142 0 198 33q92 95 92 225q0 99 -66.5 169.5t-191.5 76.5l-20 35l72 47q34 22 57 38.5t54.5 44t50 52t32.5 58t14 67.5q0 94 -54.5 162.5t-147.5 68.5q-99 0 -262 -92l-23 39q143 85 222.5 118.5t137.5 33.5 q110 0 177 -63.5t67 -188.5q0 -85 -70 -181t-169 -163l2 -6q10 2 28 2q67 0 117.5 -36t74 -86t23.5 -102q0 -91 -31 -169t-81.5 -131t-114 -91.5t-128 -56t-124.5 -17.5q-92 0 -186 22.5t-154 59.5z" />
<glyph unicode="4" horiz-adv-x="944" d="M-82 53q59 44 185 205.5t254 356.5t184 319q64 77 149 129q35 0 35 -64q0 -106 -24 -278t-44.5 -278t-62.5 -312q173 0 315 27l11 -31q-124 -72 -342 -88q-11 -70 -48 -268l-98 -123q-19 15 -14 69q3 42 41 318h-412q-50 0 -115 -10zM78 127l6 -6q74 6 193 5.5t196 0.5 q11 68 42 242t50.5 295t34.5 239l-4 6q-71 -177 -228.5 -412t-289.5 -370z" />
<glyph unicode="5" horiz-adv-x="948" d="M-25 -244l86 125q82 -39 182 -67.5t179 -28.5q47 0 86.5 12.5t74.5 40.5t54.5 80.5t19.5 126.5q0 268 -280 268q-88 0 -207 -34l-16 24q13 138 42.5 333t59.5 306q23 29 65 64.5t70 46.5q48 0 132.5 1t125.5 1q61 0 221 -4q-47 -45 -122 -125q-147 -6 -222 -6 q-112 0 -170 10l-12 -8q-26 -102 -57.5 -271t-44.5 -280l6 -11q130 78 241 78q136 0 212.5 -81.5t76.5 -217.5q0 -92 -31 -170.5t-81 -131.5t-114 -90.5t-129.5 -55t-127.5 -17.5q-77 0 -168.5 23t-151.5 59z" />
<glyph unicode="6" horiz-adv-x="1030" d="M96 403q0 117 39 244.5t114 246t175 213t233.5 151.5t276.5 57q64 0 113 -19l-119 -139q-44 8 -94 8q-149 0 -267.5 -53t-194.5 -146.5t-115.5 -219t-39.5 -273.5q0 -176 88.5 -275.5t231.5 -99.5q73 0 127.5 46.5t79 112.5t24.5 138q0 124 -61 191t-185 67 q-52 0 -94 -14t-109 -53l-14 35q63 60 154 104.5t168 44.5q121 0 183 -79t62 -204q0 -61 -22.5 -131t-64 -135.5t-94 -119.5t-118 -86.5t-129.5 -32.5q-167 0 -257.5 118t-90.5 303z" />
<glyph unicode="7" horiz-adv-x="864" d="M43 874l78 166q254 -18 428 -18q136 0 248 8l16 -20q-156 -296 -289.5 -660t-175.5 -573l-164 -90l-18 20q215 737 510 1165l-12 27q-64 -2 -236.5 -15.5t-267.5 -13.5q-78 0 -117 4z" />
<glyph unicode="8" horiz-adv-x="985" d="M76 301q0 65 26 126t77.5 118t104 102t130.5 101q-66 66 -97.5 102t-56 86t-24.5 102q0 76 63 146.5t154.5 110.5t177.5 40q88 0 141 -46.5t53 -143.5q0 -29 -8 -57.5t-29.5 -62t-36 -55t-52.5 -61.5t-53.5 -55t-61.5 -61q64 -51 104.5 -88.5t80.5 -88.5t58.5 -107 t18.5 -122q0 -96 -62.5 -187t-165 -147.5t-212.5 -56.5q-139 0 -234.5 87t-95.5 218zM215 336q0 -113 72 -183.5t182 -70.5q127 0 198.5 71t71.5 193q0 38 -13.5 74.5t-33.5 66.5t-58.5 68.5t-73 68t-93.5 76.5q-59 -45 -97.5 -79.5t-77.5 -80t-58 -96.5t-19 -108zM338 1092 q0 -94 192 -254q67 53 117.5 127.5t50.5 138.5q0 71 -52 111t-124 40q-74 0 -129 -43t-55 -120z" />
<glyph unicode="9" horiz-adv-x="1013" d="M53 -240l117 150q129 0 231.5 32.5t170 88.5t112 136t63.5 169.5t19 193.5q0 213 -82 322t-209 109q-93 0 -158 -46t-93.5 -115.5t-28.5 -154.5q0 -110 70.5 -176t180.5 -66q101 0 218 66l14 -35q-59 -65 -147 -107t-164 -42q-140 0 -208.5 84t-68.5 217q0 126 64.5 239 t176 182.5t240.5 69.5q151 0 233.5 -114t82.5 -318q0 -119 -29.5 -240t-96 -238t-161 -206.5t-236.5 -145t-311 -55.5z" />
<glyph unicode=":" horiz-adv-x="624" d="M123 133l147 141q64 -51 138 -165l-144 -132q-3 4 -55 65t-86 91zM201 901l147 141q62 -49 137 -165l-143 -132q-3 4 -55 65t-86 91z" />
<glyph unicode=";" horiz-adv-x="638" d="M123 135q17 20 48 59t48.5 57.5t26.5 20.5q44 -35 85 -90t52 -80q-4 -30 -59.5 -126.5t-147.5 -213.5l-24 25q108 145 108 178q-13 19 -69.5 78.5t-67.5 91.5zM186 901l148 141q62 -49 137 -165l-143 -132q-2 2 -55 64t-87 92z" />
<glyph unicode="&#x3c;" horiz-adv-x="1368" d="M207 514v21q434 285 883 450l79 -82q-216 -82 -387.5 -167t-367.5 -201v-37q384 -233 780 -414l-72 -61q-276 121 -517.5 250t-397.5 241z" />
<glyph unicode="=" horiz-adv-x="1294" d="M59 248l111 110h985l-111 -110h-985zM135 633l111 110h985l-111 -110h-985z" />
<glyph unicode="&#x3e;" horiz-adv-x="1284" d="M113 84q396 181 780 414v37q-195 116 -367.5 201t-388.5 167l80 82q449 -165 883 -450v-21q-321 -231 -916 -491z" />
<glyph unicode="?" horiz-adv-x="886" d="M143 100l148 142q61 -48 137 -166l-143 -131q-1 1 -54.5 62.5t-87.5 92.5zM145 532q4 61 37.5 120.5t83.5 109.5t110.5 101t120 105.5t108.5 112t79.5 131t30.5 152.5q0 94 -41.5 154.5t-110.5 60.5q-124 0 -231 -90l-6 31q147 147 286 147q121 0 187 -61t57 -189 q-4 -70 -37 -141.5t-83 -132t-109 -119.5t-117.5 -114t-106.5 -106t-78 -104t-30 -100q0 -119 35 -176q-113 -71 -142 -119l-8 2q-39 101 -35 225z" />
<glyph unicode="@" horiz-adv-x="1826" d="M154 510q0 131 40 262t120.5 249.5t190 209.5t260 145t320.5 54q145 0 258 -44t180.5 -119t101.5 -168t34 -198q0 -117 -41 -230.5t-113.5 -204.5t-183 -147.5t-238.5 -56.5q-53 0 -100 8q4 41 29.5 186t25.5 226q-43 -66 -85 -120.5t-96.5 -113t-118.5 -104.5t-132 -74 q-24 52 -24 209v10q0 91 31.5 188.5t99.5 184t157 121.5q88 29 322 29q41 0 41 -33q-21 -97 -83.5 -310t-88.5 -319q125 19 220.5 64.5t152.5 108.5t85.5 137t28.5 155q0 260 -142 402.5t-425 142.5q-159 0 -293 -66.5t-220 -175.5t-133.5 -244.5t-47.5 -277.5 q0 -125 24 -229t75.5 -189t129.5 -143.5t190 -90.5t252 -32q153 0 289 67t277 197l18 -24q-278 -306 -633 -306q-155 0 -283 37.5t-214.5 101.5t-145.5 150t-85.5 180t-26.5 195zM702 469q83 2 164.5 78t133.5 182t67 207q-152 0 -231 -18q-69 -60 -101.5 -192t-32.5 -257z " />
<glyph unicode="A" horiz-adv-x="1378" d="M-195 -16l97 131q78 -19 145 -19q68 0 106.5 16t76.5 62t104 156q47 78 274.5 509.5t325.5 585.5q-24 0 -97.5 3.5t-119.5 3.5q-47 0 -75.5 -1t-72 -6t-70.5 -14t-62.5 -27t-58 -43t-46.5 -63.5t-37.5 -87.5t-22 -116t-8.5 -148q-64 -42 -141 -111q0 395 260 608 q152 123 420 123q50 0 106.5 -3t126 -8t105.5 -7q-29 -59 -44.5 -239.5t-15.5 -420.5q0 -241 5.5 -385t20 -228.5t36 -113t57.5 -28.5q68 0 162 57l8 -16q-74 -65 -119 -98t-121 -79q-44 0 -75.5 14.5t-52 55t-32.5 78t-18.5 119.5t-8.5 141t-5 178h-373q-14 -27 -46 -91.5 t-53.5 -104t-45.5 -72.5q-117 -160 -235 -235.5t-253 -75.5h-127zM629 664h307q-2 76 -2 210q0 115 2 243.5t2 133.5q-63 -111 -168 -316t-141 -271z" />
<glyph unicode="B" horiz-adv-x="1374" d="M-18 713q0 140 33 263t103 227.5t172 180t248 118t322 42.5q210 0 313 -72t103 -188q0 -92 -73 -210t-183 -191q145 -25 215 -97.5t70 -175.5q0 -104 -61 -214.5t-156.5 -197t-221.5 -142.5t-248 -56h-446l-8 16q47 10 85 37.5t61.5 60.5t42.5 80.5t28 83.5t18 84 q36 193 72 416t52.5 325.5t42.5 195.5t59 137l2 2q-107 -2 -198 -39.5t-162 -110t-111.5 -190.5t-40.5 -271zM395 133l8 -16h304q107 0 195 32.5t143.5 87t85.5 122t30 139.5q0 61 -22.5 115t-65.5 98t-113.5 71t-158.5 29h-45l59 76l23 26q35 -14 75 -14q85 0 144 86.5 t59 194.5q0 52 -16.5 97.5t-50.5 84t-92.5 60.5t-135.5 22l-84 -4q-16 -34 -26 -88q-8 -51 -42.5 -265.5t-63 -382.5t-58.5 -323q-11 -63 -45 -120t-107 -128z" />
<glyph unicode="C" horiz-adv-x="1069" d="M74 463q0 139 41 292t115.5 290.5t169.5 249t211.5 177.5t232.5 66q142 0 278 -41l-118 -154q-114 80 -232 107q-105 -1 -208.5 -75.5t-180 -190.5t-123.5 -266t-47 -297q0 -83 19 -163.5t55.5 -151.5t98.5 -123t140 -70q143 25 361 190l18 -16q-74 -93 -194.5 -184 t-221.5 -119q-107 0 -189.5 42t-130 112.5t-71.5 152.5t-24 172z" />
<glyph unicode="D" horiz-adv-x="1499" d="M23 713q0 140 29.5 262t94 227.5t160.5 180.5t236.5 118t314.5 43q120 0 215.5 -28.5t159 -77t105.5 -117t60.5 -145t18.5 -164.5q0 -107 -29.5 -224t-82 -229.5t-131.5 -214t-173 -178t-211 -121.5t-241 -45h-369l-8 16q47 10 85 37.5t61.5 60.5t42.5 80.5t28.5 84 t18.5 83.5q36 194 71.5 416.5t52 326t42.5 196.5t59 137q-65 0 -130 -22t-128 -70.5t-111.5 -118t-78 -173t-29.5 -227.5zM403 133l9 -16h282q101 0 194 46.5t162.5 125t121.5 178t79 210t27 216.5q0 93 -16.5 172.5t-55 150.5t-98 120.5t-150.5 78.5t-208 29 q-25 -57 -31 -92q-14 -84 -44.5 -273.5t-59.5 -367t-56 -330.5q-11 -62 -46 -119t-110 -129z" />
<glyph unicode="E" horiz-adv-x="1280" d="M-16 815q0 233 83.5 399.5t286.5 282.5q40 23 106 32t199 9h322q243 0 311 2l-114 -121q-40 0 -218 1t-258 1q-15 -37 -20 -69l-70 -441h29q49 0 126.5 -4t115.5 -4q101 0 198 21l11 -9q-37 -53 -98.5 -94t-129.5 -41q-18 0 -101.5 2t-172.5 2q-36 -235 -70 -403 q-13 -64 -46.5 -121t-106.5 -127l8 -16l485 -4q16 -1 31 -1q151 0 268 81l8 -17q-182 -138 -239 -178l-785 2l-8 16q47 10 85 37.5t61.5 60.5t42.5 80.5t28.5 84t18.5 83.5q36 194 69.5 405.5t49 316.5t38.5 197.5t52 139.5h-84q-205 0 -288 -111.5t-83 -383.5z" />
<glyph unicode="F" horiz-adv-x="1241" d="M-18 -16l96 131q78 -19 155 -19q53 0 86.5 34t53.5 134q44 229 87 519t70.5 434.5t63.5 203.5h-84q-205 0 -288 -111.5t-83 -383.5l-141 -111q0 233 84 399.5t287 282.5q40 23 106 32t199 9h321q244 0 312 2l-115 -121q-40 0 -217.5 1t-257.5 1q-17 -42 -21 -69l-69 -441 h23q54 1 124 -3q86 -4 123 -5q102 0 199 21l10 -9q-37 -53 -98 -94t-129 -41q-18 0 -102 2t-173 2q-11 -75 -32.5 -189.5t-26.5 -145.5q-40 -236 -159 -353q-116 -114 -285 -114h-9z" />
<glyph unicode="G" horiz-adv-x="1230" d="M72 532q0 164 65.5 342.5t179.5 329.5q119 159 267.5 255.5t289.5 96.5q90 0 191 -9.5t152 -20.5l-105 -127q-59 24 -140.5 40.5t-148.5 16.5q-104 0 -200.5 -54t-170 -145t-128.5 -206.5t-84 -242t-29 -247.5q0 -174 79 -294.5t236 -157.5q152 27 287 176q12 61 32 177 t35 197t25 109q-229 0 -303 -35l-22 17l170 127q61 6 352 6l2 -9q-29 -16 -58 -63.5t-40 -114.5q-74 -440 -107 -570q-46 -184 -126 -300q-35 -50 -87 -107l8 -16q94 -12 189 -12q101 0 180 10l8 -16q-94 -66 -137 -95l-471 -4l-8 17q86 54 144.5 120.5t111.5 189t94 306.5 q-120 -182 -318 -239q-95 0 -168 30.5t-119 81t-75.5 123.5t-41 150t-11.5 167z" />
<glyph unicode="H" horiz-adv-x="1640" d="M-18 815q0 233 83.5 399.5t286.5 282.5q39 23 103 31t200 8h193l2 -6q-21 -13 -48.5 -60t-45.5 -106q-39 -129 -80 -459l618 -2q42 268 62.5 365t54.5 153q-46 2 -88 2q-116 0 -211 -14l-2 4q65 76 144.5 100.5t248.5 24.5h111l2 -6q-30 -18 -59.5 -65.5t-40.5 -114.5 q-12 -74 -69.5 -423.5t-90.5 -547.5q-11 -62 -46 -119t-110 -129l8 -16h125q71 0 141 21t119 55l9 -17l-42 -35t-38.5 -32t-33.5 -28t-30.5 -25t-25.5 -20t-23 -17t-18.5 -11.5t-16.5 -7.5t-12 -2q-250 0 -385 2l-8 16q47 10 85 37.5t61.5 60.5t42.5 80.5t28 83.5t18 84 q13 69 76 439l-621 4q-42 -273 -57 -356q-42 -236 -160 -353q-115 -114 -283 -114h-9l-111 2l96 131q78 -19 156 -19q51 0 82 33.5t51 134.5q48 249 92.5 542t69.5 428.5t57 186.5l-154 2h-10q-191 -1 -273 -113q-84 -116 -83 -384z" />
<glyph unicode="I" horiz-adv-x="903" d="M-10 815q0 233 83.5 399.5t286.5 282.5q71 41 297 41h185l2 -6q-30 -18 -60 -65.5t-41 -114.5q-5 -29 -64 -397t-95 -574q-14 -64 -48.5 -121t-107.5 -127l8 -16q51 -2 95 -2q92 -1 157 9q96 14 176 69l8 -17q-165 -140 -204 -163q-22 -14 -35 -15q-59 0 -208 1t-220 1 l-8 16q47 10 85 37.5t61.5 60.5t42.5 80.5t28 83.5t18 84q37 201 72 416.5t51 320t37.5 193t46.5 129.5h-137q-205 0 -288 -111.5t-83 -383.5z" />
<glyph unicode="J" horiz-adv-x="1030" d="M-111 -246l119 80q32 -30 50.5 -45.5t55 -41t74 -38t76.5 -12.5q107 0 185.5 89.5t103.5 266.5q35 245 71.5 475t78 471.5t53.5 317.5q11 67 43 104h-142q-205 0 -287.5 -111.5t-82.5 -383.5l-142 -111q0 233 84 399.5t287 282.5q71 41 295 41h184l2 -6 q-30 -18 -59 -65.5t-39 -114.5q-91 -618 -227 -1329q-26 -136 -149.5 -266t-291.5 -171q-32 0 -67.5 9.5t-60.5 19t-63 33t-52.5 33.5t-54 39.5t-44.5 33.5z" />
<glyph unicode="K" horiz-adv-x="1482" d="M-12 815q0 233 83.5 399.5t286.5 282.5q39 23 103.5 31t200.5 8h192l2 -6q-21 -13 -48.5 -60t-45.5 -106q-29 -94 -59.5 -277t-57.5 -382t-37 -256q-42 -232 -155.5 -348.5t-282.5 -116.5h-125l96 131q78 -19 156 -19q51 0 82 33.5t51 134.5q48 250 92.5 542.5 t69.5 428.5t57 188h-164q-193 0 -274.5 -115.5t-81.5 -381.5zM737 694q0 138 29.5 258.5t77 204.5t109 152.5t122.5 110t121.5 70t103 39.5t68.5 11q97 0 154 -74l-154 -102q-74 39 -145 39q-73 0 -133.5 -41t-98.5 -103t-64 -138t-37 -142.5t-11 -120.5 q124 -259 292.5 -541.5t313.5 -476.5l-72 -71q-343 373 -676 925z" />
<glyph unicode="L" horiz-adv-x="858" d="M-102 16q47 10 85 37.5t61.5 60.5t42.5 80.5t28 83.5t18 84q47 250 84.5 514t38.5 271q25 151 176 272t316 121q111 0 204 -72l-121 -102q-126 94 -219 94q-153 0 -196 -254q-32 -183 -75 -472.5t-56 -352.5q-24 -122 -156 -248l8 -16q82 0 175 -43.5t177 -105t167 -123 t172 -105t165 -43.5q45 0 98 22.5t99 69.5l18 -16q-41 -77 -128.5 -124.5t-186.5 -47.5q-58 0 -122.5 23t-125 59.5t-123 80.5t-125 88.5t-122.5 81t-124 59.5t-120 23q-59 0 -125 -16z" />
<glyph unicode="M" horiz-adv-x="2031" d="M-59 -14l96 131q78 -19 145 -19q41 0 75 7t58 16.5t45.5 29t34.5 35t27.5 44.5t22 47t20.5 53l391 1050q12 33 29 47q-32 0 -104 3.5t-111 3.5q-47 0 -75.5 -1t-72 -6t-70.5 -14t-62.5 -27t-58 -43t-46.5 -63.5t-37.5 -87.5t-22 -116t-8.5 -148q-64 -42 -141 -111 q0 395 260 608q152 123 420 123q64 0 336 -20q36 -376 36 -926v-229q73 249 196 511t263 454.5t244 215.5q-76 -679 -76 -1048q0 -205 25 -371q82 0 178 58l8 -17q-146 -129 -319 -209q-39 189 -39 488q0 450 73 796q-40 -34 -80 -82.5t-74.5 -99.5t-77.5 -130t-76 -146 t-83 -176.5t-86.5 -192t-98 -223t-106.5 -240.5l-8 2q0 15 1 51t1 56q0 209 -20.5 675.5t-20.5 540.5v25l-366 -957q-62 -160 -199.5 -264t-320.5 -104h-125z" />
<glyph unicode="N" horiz-adv-x="1656" d="M-59 815q0 233 83.5 399.5t286.5 282.5q39 23 103 31t200 8h181q112 -306 219 -658.5t176 -646.5q22 123 66.5 429.5t81.5 495t77 265.5q-46 2 -88 2q-116 0 -211 -14l-2 4q65 76 144.5 100.5t248.5 24.5h111l2 -6q-30 -18 -59.5 -65.5t-40.5 -114.5l-156 -906 q-35 -202 -93.5 -307t-176.5 -159l-9 16l56 31q-85 260 -222.5 650t-226.5 664q-33 -158 -68 -447.5t-59 -426.5q-41 -236 -159 -353q-115 -114 -284 -114h-9l-111 2l96 131q74 -18 156 -18q51 0 82 33.5t51 134.5q49 255 91 542t65 419t53 177l-147 2h-10 q-191 -1 -273 -113q-84 -116 -84 -384z" />
<glyph unicode="O" horiz-adv-x="1191" d="M72 485q0 164 57.5 336t154 317.5t234.5 254.5t289 149q155 -45 231 -191t76 -350q0 -212 -92 -425.5t-256.5 -374t-359.5 -211.5q-166 43 -250 176t-84 319zM211 608q0 -177 75 -312.5t226 -191.5q132 40 240 163.5t165.5 285.5t57.5 326q0 193 -67.5 340t-207.5 208 q-139 -42 -252.5 -173t-175 -302.5t-61.5 -343.5z" />
<glyph unicode="P" horiz-adv-x="1337" d="M-18 713q0 140 33 263t103 227.5t172 180t248 118t322 42.5q226 0 346.5 -80.5t120.5 -212.5q0 -58 -23 -127.5t-69 -139t-105.5 -127.5t-141 -94t-167.5 -36q-31 0 -45 2l82 102q35 -14 76 -14q79 0 135 47.5t80.5 116.5t24.5 149q0 133 -99.5 223.5t-279.5 90.5h-39 q-24 -51 -31 -92q-14 -84 -44.5 -273.5t-59.5 -367t-56 -330.5q-11 -62 -46 -119.5t-109 -128.5l8 -16h125q71 0 141 21t119 55l8 -17l-42 -35t-38.5 -32t-33.5 -28t-30.5 -25t-25.5 -20t-23 -17t-18.5 -11.5t-16.5 -7.5t-12 -2q-250 0 -385 2l-8 16q47 10 85 37.5 t61.5 60.5t42.5 80.5t28.5 84t18.5 83.5q36 193 72 416.5t52.5 326t42.5 196t60 137.5q-87 0 -164 -22t-144 -70t-115 -118.5t-75.5 -173t-27.5 -227.5z" />
<glyph unicode="Q" horiz-adv-x="1329" d="M10 59l166 103q79 -31 154 -31q107 0 219 51t204 136t166.5 188t116 214.5t41.5 207.5q0 75 -15.5 148t-46.5 141t-85 123.5t-125 86.5q-258 0 -391 -137.5t-133 -412.5q0 -123 55 -198.5t137 -109.5l-125 -112q-94 33 -150.5 121t-56.5 213q0 150 56.5 287t156 239.5 t245 163.5t312.5 61q104 -30 174 -110.5t99.5 -180.5t29.5 -217q0 -135 -59.5 -278.5t-158 -266.5t-223.5 -225.5t-259 -167.5q39 -16 156.5 -75t202.5 -88t167 -29q59 0 112 17t124 52l20 -22q-82 -62 -187.5 -113t-205.5 -51q-65 0 -135 28t-135.5 68t-136.5 80t-163.5 68 t-189.5 28q-59 0 -125 -16z" />
<glyph unicode="R" horiz-adv-x="1476" d="M-12 713q0 140 33 263t103 227.5t172 180t248 118t322 42.5q226 0 346.5 -80.5t120.5 -212.5q0 -151 -118 -277.5t-318 -172.5q128 -249 289.5 -517t304.5 -446l-61 -69q-410 446 -728 1015l68 72h80q80 0 145 24t104 64t60 87.5t21 98.5q0 133 -99.5 223.5t-279.5 90.5 h-39q-24 -51 -31 -92q-14 -84 -44.5 -273.5t-59.5 -367t-56 -330.5q-11 -62 -46 -119.5t-109 -128.5l8 -16h125q71 0 141 21t119 55l8 -17q-21 -18 -52.5 -44.5t-47.5 -40t-38.5 -32t-35 -27t-26.5 -18t-23 -13t-16 -3.5q-250 0 -385 2l-9 16q47 10 85 37.5t61.5 60.5 t42.5 80.5t28.5 84t18.5 83.5q36 193 72 416.5t52.5 326t42.5 196t60 137.5q-87 0 -164 -22t-144 -70t-115 -118.5t-75.5 -173t-27.5 -227.5z" />
<glyph unicode="S" horiz-adv-x="1009" d="M-51 78l117 131q70 -44 156 -76.5t153 -32.5q98 0 181 88t83 185q0 74 -42.5 161t-103.5 167.5t-122 160t-103.5 164t-42.5 154.5q0 105 65 192t172.5 135.5t231.5 48.5q152 0 295 -53l-117 -135q-137 62 -274 62q-260 0 -260 -117q0 -62 44 -141.5t106.5 -157.5 t125 -157t106.5 -162t44 -150q0 -149 -66.5 -278t-183 -206t-254.5 -77q-95 0 -177 27t-134 67z" />
<glyph unicode="T" horiz-adv-x="1175" d="M-12 815q0 233 83.5 399.5t286.5 282.5q55 33 197 39q74 2 252 2h321q212 0 271 2l-115 -121q-37 0 -198.5 1t-235.5 1q-17 -42 -21 -69q-146 -902 -159 -971q-14 -64 -48.5 -121t-107.5 -127l8 -16l111 -6q184 0 299 82l8 -17q-171 -130 -240 -178l-409 2l-8 16 q47 10 85 37.5t61.5 60.5t42.5 80.5t28 83.5t18 84q36 194 69.5 405.5t49 316.5t38.5 197.5t52 139.5h-227q-205 0 -288 -111.5t-83 -383.5z" />
<glyph unicode="U" horiz-adv-x="1644" d="M-18 815q0 233 83.5 399.5t286.5 282.5q39 23 103 31t200 8h193l2 -6q-21 -13 -48.5 -60t-45.5 -106q-80 -435 -114 -657.5t-34 -323.5q0 -123 39 -186.5t125 -63.5q69 0 146 73t136.5 176.5t102.5 206t57 171.5l132 661q12 29 34.5 50.5t55.5 34.5t56 19t60 13l2 -6 q-30 -18 -59.5 -65.5t-40.5 -114.5q-12 -73 -47 -271.5t-63.5 -374t-49.5 -331.5q-4 -40 -4 -56q0 -94 42 -139t102 -45q82 0 178 58l8 -17q-73 -65 -117.5 -97t-122.5 -79q-211 3 -211 289q0 81 25 235h-10q-47 -128 -140.5 -251t-200.5 -199t-190 -76q-102 0 -148 89.5 t-46 238.5q0 107 18 215q19 124 40.5 275.5t32.5 229t26 161.5t30.5 133t36.5 83h-164q-193 0 -274.5 -115.5t-81.5 -381.5z" />
<glyph unicode="V" horiz-adv-x="1413" d="M-31 817q0 193 81 362t219.5 270t299.5 101q42 0 77 -15.5t63 -49t50 -75t38 -104t28.5 -124.5t20 -149.5t12.5 -165.5t7.5 -185.5t3.5 -196.5t1 -211q10 33 24 67.5t22 50.5t27.5 53t21.5 42q6 13 133.5 251.5t209 407t81.5 208.5q0 25 -16.5 36t-57.5 11h-117l-2 8 l150 92h79q117 0 117 -82q0 -26 -37 -110t-99 -202.5t-115.5 -217.5t-116 -210.5t-70.5 -127.5q-165 -300 -256 -494l-137 -75q22 169 22 440q0 143 -7.5 276.5t-26.5 270.5t-49 237.5t-78.5 164t-110.5 63.5q-42 0 -85.5 -12.5t-92.5 -47t-86 -88.5t-61.5 -147t-24.5 -211 q-67 -45 -142 -111z" />
<glyph unicode="W" horiz-adv-x="2002" d="M-31 817q0 193 81 362t219.5 270t299.5 101q59 0 106 -33.5t78 -94.5t53 -137t34 -171t17 -185t5 -190q0 -210 -18 -426q72 127 142.5 285.5t175 415t157.5 381.5l240 147l12 -14q-150 -177 -150 -520q0 -47 1.5 -95.5t5 -107t6.5 -98t9.5 -111t9.5 -101t11.5 -113 t10.5 -103.5q61 82 158 275t178 415t81 336q0 96 -65 96h-96l-2 8l155 92h80q49 0 83 -13.5t34 -43.5v-8q-29 -144 -88.5 -312.5t-137.5 -333.5t-143.5 -293.5t-141 -267t-95.5 -178.5l-74 -71q-63 315 -86 513t-23 494v113q-164 -402 -242 -566.5t-245 -476.5l-141 -75 l14 116q31 248 31 553q0 121 -6.5 225.5t-23.5 210t-44 180t-71.5 121t-102.5 46.5q-42 0 -85.5 -12.5t-92.5 -47t-86 -88.5t-61.5 -147t-24.5 -211q-67 -45 -142 -111z" />
<glyph unicode="X" horiz-adv-x="1531" d="M-41 0l96 133q74 -18 146 -18q108 0 174 48t178 204q44 61 94 138t108 170t74 118l-12 53q-13 58 -17.5 78.5t-19 83.5t-24.5 95.5t-27.5 89t-33.5 91t-36.5 75t-43.5 67.5t-48 44q-147 0 -217.5 -103.5t-70.5 -326.5l-142 -110q0 97 18.5 185.5t59 168.5t100 138.5 t147.5 93t195 34.5q34 0 64 -18.5t53 -45t45 -74t36 -86.5t31 -102t25.5 -101t22.5 -103l10 -47q38 68 47 84q123 215 184 296q122 162 257 190q33 7 67 7q41 0 93 -10.5t89 -30.5l-100 -125q-109 78 -170 78q-78 0 -151 -121q-70 -117 -281 -507l12 -58q26 -130 75 -279.5 t112 -267.5t112 -118q109 0 281 143l18 -16q-68 -80 -165 -153.5t-195 -100.5q-29 0 -58.5 17t-54.5 43t-50.5 67.5t-45.5 81.5t-41.5 93.5t-36 95t-31 95.5t-25.5 84t-20 72q-135 -198 -250 -330q-185 -214 -380 -276q-83 -27 -152 -27h-125z" />
<glyph unicode="Y" horiz-adv-x="1380" d="M-31 -207l119 86q132 -123 260 -123q42 0 81.5 22t78 61t86.5 111.5t95 155t114 209.5q-12 45 -60.5 239.5t-75.5 293t-71 248.5t-82 240.5t-72 133.5q-136 0 -202 -104t-66 -326l-141 -110q0 157 57.5 299.5t159.5 231.5t221 89q40 0 78 -31t69 -81t61 -126.5t54 -154 t49 -178t43.5 -184.5t40.5 -186q6 -29 9.5 -44.5t8.5 -39t9 -42.5q16 29 149 262.5t216 395t83 202.5q0 20 -13 32t-55.5 19t-119.5 7l-2 8l154 92h79q113 0 113 -82q0 -52 -88 -227t-223 -413t-137 -242q-172 -321 -279.5 -487t-211.5 -263t-247 -162q-76 10 -167.5 56.5 t-174.5 111.5z" />
<glyph unicode="Z" horiz-adv-x="1099" d="M-51 104q203 216 320 342.5t273.5 303t273.5 325.5t212 289q-53 -6 -94 -6q-73 0 -142 16t-114 36t-110 36t-132 16q-44 0 -88 -12q-102 -94 -102 -346l-142 -111q0 83 14 160t48 151.5t86 128.5t133.5 87.5t183.5 33.5q82 0 161.5 -21t152 -42t139.5 -21q128 0 297 76 l14 -14q-95 -86 -217.5 -237.5t-237 -308.5t-231 -312.5t-234 -284t-212.5 -188.5l8 -17q91 0 185 -37t174.5 -89.5t160 -105t171.5 -89.5t181 -37q104 0 174 111l25 -7q-27 -97 -123.5 -159t-212.5 -62q-74 0 -164.5 40.5t-177 98.5t-173 116.5t-178.5 99t-169 40.5 q-59 0 -125 -16z" />
<glyph unicode="[" horiz-adv-x="860" d="M231 -180q82 711 250 1859h424l-37 -47h-262q-175 -1170 -246 -1763h302l-39 -49h-392z" />
<glyph unicode="\" horiz-adv-x="1001" d="M133 1614l100 102q135 -490 286 -959t282 -816l-84 -111q-254 699 -584 1784z" />
<glyph unicode="]" horiz-adv-x="847" d="M-12 -180l39 49h272q123 866 236 1763h-295l36 47h394q-102 -806 -258 -1859h-424z" />
<glyph unicode="^" horiz-adv-x="1376" d="M111 651q274 380 600 776q22 -30 97 -134.5t111.5 -156.5t97 -140t107 -162.5t86.5 -145.5l-92 -90q-74 109 -147.5 214.5t-173 244.5t-142.5 200q-173 -244 -520 -634z" />
<glyph unicode="_" horiz-adv-x="1302" d="M125 -113l111 111h1001l-111 -111h-1001z" />
<glyph unicode="`" d="M174 1552q102 3 176 -41q65 -40 119.5 -102t146.5 -192l-30 -37q-45 52 -72.5 83t-79.5 78t-100 76q-20 12 -50.5 26t-52.5 22t-26 8z" />
<glyph unicode="a" d="M6 201q0 214 51 397q28 102 65 176.5t91.5 132.5t131 87.5t175.5 29.5q148 0 199 -10l-12 -60q-10 -57 -28.5 -153.5t-23.5 -128.5q-53 -343 -123 -561l7 -5q88 64 204 195.5t226 284.5l20 -15q-148 -215 -297 -381.5t-250 -209.5q-2 25 -2 77q0 92 10.5 168.5t34 186 t35.5 178.5l-6 4q-127 -215 -233.5 -358t-247.5 -267q-27 95 -27 232zM133 256q0 -82 12 -119q11 0 32 25t50 68t31 46q77 96 195 318t118 313q-47 13 -127 13q-58 0 -97 -5.5t-69.5 -23t-48.5 -39t-32.5 -65t-22.5 -88.5t-18 -121q-23 -187 -23 -322z" />
<glyph unicode="b" horiz-adv-x="786" d="M35 104q12 104 25.5 211t26 199t41.5 306.5t56 420.5q16 119 85 234.5t176 191.5t217 76q58 0 100 -10l-84 -111q-58 12 -129 12q-42 0 -76.5 -17.5t-58 -44t-43.5 -68.5t-31.5 -80t-21.5 -91t-15 -89.5t-11 -87t-9 -71.5q-9 -65 -37.5 -322t-34.5 -294q53 97 96 169 t106.5 167t127.5 160.5t123 93.5q19 -14 33 -67t14 -103q0 -86 -10 -172.5t-33.5 -177t-58.5 -171t-88 -152t-119 -123t-154.5 -81.5t-190.5 -30q-9 16 -15.5 55.5t-6.5 66.5zM139 117q0 -14 29 -22.5t72 -8.5q102 0 182.5 82.5t123 217t42.5 292.5q0 103 -31 182 q-45 -46 -90 -97.5t-102.5 -130.5t-102 -157.5t-79.5 -174t-44 -183.5z" />
<glyph unicode="c" horiz-adv-x="636" d="M12 377q0 119 37 230.5t93.5 190t121.5 138t123 88.5t96 29q100 0 160 -56l-90 -106q-48 80 -123 80t-140 -84t-101.5 -214.5t-36.5 -269.5q0 -242 135 -315q109 79 238.5 229.5t246.5 319.5l21 -12q-152 -229 -314 -414t-270 -231q-19 0 -40.5 7.5t-50.5 33t-51.5 66 t-38.5 116t-16 174.5z" />
<glyph unicode="d" horiz-adv-x="860" d="M6 193q0 180 49 376q70 229 177 343t282 114q43 0 70 -10l39 225q21 120 89.5 234.5t173 191t214.5 76.5q58 0 100 -10l-84 -111q-58 12 -129 12q-42 0 -76.5 -17t-58 -44t-43 -68.5t-31 -80.5t-21.5 -91t-15 -90t-11 -86.5t-10 -71.5q-14 -85 -41.5 -316t-57 -393 t-71.5 -265l6 -5q88 63 203 194.5t227 285.5l21 -15q-148 -215 -297 -381.5t-250 -209.5q-4 50 -4 77q0 97 29.5 263.5t35.5 214.5q3 35 15 55l-7 4q-17 -27 -56 -91.5t-69 -113.5t-76.5 -116.5t-87.5 -117t-93 -97t-101 -74.5q-41 86 -41 209zM143 281q0 -89 21 -154 q129 136 235 338t170 436q-47 21 -131 21q-57 0 -96 -10t-69.5 -33t-50 -66.5t-33 -105t-23.5 -154.5q-23 -213 -23 -272z" />
<glyph unicode="e" horiz-adv-x="610" d="M10 369q0 122 47.5 248.5t119.5 221t158.5 154.5t162.5 60q104 0 104 -82q0 -199 -452 -500q-3 -34 -3 -57q0 -231 140 -334q202 156 454 506l21 -15q-148 -215 -297 -381.5t-250 -209.5q-70 17 -118 79.5t-67.5 141.5t-19.5 168zM160 520q126 82 224.5 198.5t98.5 190.5 q0 24 -12.5 43t-42.5 19q-53 0 -98 -37t-77.5 -102t-55 -142.5t-37.5 -169.5z" />
<glyph unicode="f" horiz-adv-x="458" d="M-389 -428l78 113q66 -17 125 -17q194 0 235 316q2 18 127 938l-188 -9q55 95 57 95q63 2 145 6q9 76 21 153q35 259 170 417.5t309 158.5q84 0 141 -31l-83 -110q-74 32 -170 32q-42 0 -76.5 -17.5t-58 -44t-43.5 -68t-31.5 -80.5t-21.5 -91t-15 -89.5t-11 -86.5 t-10 -72q-8 -38 -10 -65l270 14q-22 -59 -24 -59q-62 -30 -258 -45q-65 -533 -99 -776q-42 -294 -168 -444t-321 -150q-43 0 -90 12z" />
<glyph unicode="g" horiz-adv-x="854" d="M-53 -422l80 125q92 -27 166 -27t119.5 11t82.5 44t57.5 93.5t32.5 159.5q40 319 74 551q3 37 14 55l-6 4q-8 -14 -40.5 -69.5t-49.5 -83.5t-52.5 -84.5t-60.5 -91t-62.5 -83t-69.5 -81t-71 -64.5t-77 -53q-41 86 -41 209q0 176 49 376q111 457 459 457h186 q-15 -109 -49.5 -396t-60.5 -476q-39 -284 -169.5 -439t-353.5 -155q-83 0 -157 18zM180 281q0 -89 21 -154q129 136 235 338t170 436q-47 21 -131 21q-57 0 -96 -10t-69.5 -33t-50 -66.5t-33 -105t-23.5 -154.5q-23 -213 -23 -272z" />
<glyph unicode="h" horiz-adv-x="911" d="M47 111q0 15 4 39l150 1091q16 112 84.5 227t176 195t216.5 80q58 0 100 -10l-84 -111q-58 12 -129 12q-42 0 -76.5 -17.5t-58.5 -43.5t-44 -69t-31.5 -80t-22 -91.5t-14.5 -89t-10 -87t-9 -71.5l-92 -700q67 120 124.5 214.5t126 193t135.5 165.5t126 95q35 -26 35 -166 q0 -113 -25 -240.5t-65 -282t-58 -253.5l4 -5q88 64 204 195.5t226 284.5l21 -15q-148 -215 -297 -381.5t-250 -209.5q-4 50 -4 77q0 129 47 396.5t47 412.5q-129 -115 -273.5 -355t-236.5 -531q-47 53 -47 131z" />
<glyph unicode="i" horiz-adv-x="452" d="M39 823l4 23q5 8 15 20.5t40 46t60.5 60t74 51.5t82.5 31q-13 -82 -43.5 -310.5t-58 -381.5t-61.5 -250l4 -7q89 63 203.5 194t226.5 286l22 -15q-147 -213 -297.5 -380.5t-251.5 -210.5q-4 50 -4 77q0 106 16.5 225t53.5 317t57 329zM227 1225q21 58 25 182l108 98 q2 -16 2 -51q0 -85 -30 -137.5t-105 -91.5z" />
<glyph unicode="j" horiz-adv-x="407" d="M-416 -432l84 131q58 -12 129 -12q35 0 64.5 8t52 21t41 37t32 46t25 59.5t18.5 67t15 78t12.5 83t12 91t12.5 94.5l96 656l-143 -105l4 23q5 8 15 20.5t40 46t60.5 60t74 51.5t82.5 31l-96 -715q-52 -380 -196 -581t-334 -201q-59 0 -101 10zM236 1219q20 55 24 182 l109 98q2 -16 2 -51q0 -85 -30 -137.5t-105 -91.5z" />
<glyph unicode="k" horiz-adv-x="931" d="M41 119q0 21 2 31l150 1091q16 112 84.5 227t176 195t216.5 80q58 0 100 -10l-84 -111q-58 12 -129 12q-48 0 -86 -19.5t-64.5 -65t-43.5 -79.5t-31 -107t-18.5 -100t-13.5 -102q-2 -15 -3 -22l-55 -449q77 159 193.5 261t240.5 102q98 0 98 -103q0 -224 -303 -379 q29 -69 78.5 -236.5t60.5 -228.5q78 43 218 189.5t243 290.5l21 -15q-148 -215 -297 -381.5t-250 -209.5q-49 84 -136 294.5t-112 264.5q159 65 260.5 158t101.5 198q0 32 -15.5 54t-45.5 22q-71 0 -129 -53.5t-135 -188.5q-42 -74 -77.5 -174.5t-54 -177t-46.5 -205.5 t-43 -190q-72 48 -72 137z" />
<glyph unicode="l" horiz-adv-x="462" d="M37 57q0 103 28 306t74 484.5t62 393.5q16 110 83 224.5t174.5 196t219.5 81.5q58 0 100 -10l-84 -111q-58 12 -129 12q-42 0 -76.5 -17t-58 -44t-43 -68.5t-31 -80.5t-21.5 -91t-15 -90t-11 -86.5t-10 -71.5q-14 -88 -41 -316t-56 -391t-71 -267l6 -5q97 69 225.5 218 t241.5 313l21 -12q-152 -229 -314 -414t-270 -231q-4 50 -4 77z" />
<glyph unicode="m" horiz-adv-x="1333" d="M39 823l4 23q5 8 15 20.5t40 46t60.5 60t74 51.5t82.5 31q-14 -88 -43 -319.5t-49 -342.5l6 -4q106 226 240 417.5t242 246.5q15 -12 26 -52t11 -81q0 -99 -45 -289t-52 -238l6 -4q106 226 240 417.5t242 246.5q16 -13 25.5 -54.5t9.5 -89.5q0 -112 -25.5 -244 t-65.5 -291t-57 -263l6 -5q180 129 430 480l21 -15q-142 -209 -292.5 -378t-254.5 -213q-4 50 -4 77q0 131 46 396t46 403l-8 4q-118 -117 -255.5 -356.5t-219.5 -523.5q-45 39 -45 102q0 19 2 29q10 87 36 227t44 268.5t18 249.5l-8 4q-118 -117 -255.5 -356.5 t-219.5 -523.5q-47 53 -47 131q0 57 16 183t33.5 235.5t39.5 241t25 147.5l-6 4z" />
<glyph unicode="n" horiz-adv-x="933" d="M41 823l4 23q5 8 15 20.5t40 46t60.5 60t74 51.5t82.5 31q-14 -88 -43 -319.5t-49 -342.5l6 -4q77 149 157.5 278t176.5 239t174 147q16 -13 25.5 -54.5t9.5 -87.5q0 -114 -26.5 -255.5t-66.5 -302.5t-54 -242l6 -5q180 129 430 480l20 -15q-143 -209 -292.5 -378 t-253.5 -213q-5 62 -5 77q0 131 46.5 396t46.5 403l-9 4q-123 -112 -266.5 -351.5t-234.5 -528.5q-47 53 -47 131q0 32 28.5 233.5t57.5 387.5l28 186l-6 4z" />
<glyph unicode="o" horiz-adv-x="751" d="M10 365q0 145 68 290.5t180.5 251.5t239.5 142q50 -24 90 -93.5t59 -146.5t19 -143q0 -138 -67.5 -283.5t-181 -255t-239.5 -145.5q-78 35 -123 151.5t-45 231.5zM145 465q0 -59 2 -97.5t10 -92t27 -105.5t49 -107q297 127 297 502q0 59 -2 97.5t-10 92t-27 105.5 t-49 107q-157 -71 -227 -195.5t-70 -306.5z" />
<glyph unicode="p" horiz-adv-x="790" d="M-246 -510q40 22 67.5 38.5t52.5 38t40 37t30 45t22.5 50.5t18 65.5t16.5 79.5t17 101q17 108 64 450.5t82 530.5l-150 -97l4 23q5 8 15 20.5t40.5 46t61 60t74 51.5t82.5 31q-24 -115 -44.5 -257t-31.5 -202l6 -2q174 321 404 461q36 -59 49.5 -129t13.5 -197 q0 -104 -32.5 -231.5t-85.5 -239.5t-128.5 -188t-152.5 -76q-69 0 -131 59q-21 -74 -39.5 -152.5t-27 -117t-23 -76.5t-35.5 -65l6 -10q33 19 158 98l12 -31q-75 -44 -216.5 -118t-219.5 -119zM164 143q17 -12 61.5 -22t67.5 -10q95 0 147.5 51.5t76.5 173.5t24 344 q0 149 -19 199q-25 -11 -68 -50t-93 -99t-95.5 -148.5t-66.5 -180.5q-29 -137 -35 -258z" />
<glyph unicode="q" horiz-adv-x="794" d="M6 193q0 176 49 376q111 457 459 457q20 0 61 -7t62 -7q64 0 113 49l12 -27q-57 -48 -66 -121q-11 -70 -38 -258.5t-42 -283.5q-4 -27 -19 -106t-29 -162.5t-23 -151.5q-4 -18 -13.5 -76.5t-15.5 -80t-26.5 -63.5t-53.5 -81l10 -10q44 23 162 98l17 -35l-435 -252l-22 43 q55 22 94.5 45.5t65 52t40.5 52t24 63t13 66.5t9 80.5t10 87.5q28 191 59.5 365.5t38.5 228.5q3 35 15 55l-7 4q-8 -14 -40.5 -69.5t-49.5 -83.5t-52.5 -84.5t-60.5 -91t-62.5 -83t-69.5 -81t-71 -64.5t-77 -53q-41 86 -41 209zM143 281q0 -89 21 -154q129 136 235 338 t170 436q-47 21 -131 21q-57 0 -96 -10t-69.5 -33t-50 -66.5t-33 -105t-23.5 -154.5q-23 -213 -23 -272z" />
<glyph unicode="r" horiz-adv-x="604" d="M35 823l4 23q5 8 15 20.5t40 46t60.5 60t74 51.5t82.5 31q-14 -87 -40 -281t-40 -287h15q104 278 206 423t220 145q41 0 71 -21l-65 -112q-29 18 -74 18q-98 0 -215.5 -224t-220.5 -640l-113 -96q-4 50 -4 77q0 106 16.5 225t53.5 317t57 329z" />
<glyph unicode="s" horiz-adv-x="620" d="M-70 39l103 94q30 -27 79 -45t93 -18q61 0 121.5 51.5t60.5 111.5t-40 126.5t-118 150.5q-35 38 -53 59.5t-45.5 58t-40 69.5t-12.5 63q0 102 151 221q90 72 207 72q100 0 160 -56l-96 -112q-12 42 -49.5 64t-94.5 22q-65 0 -106 -37.5t-41 -89.5q0 -25 6.5 -50t11.5 -40 t24 -41.5t24 -33t33 -38t30 -33.5q77 -89 113 -156.5t36 -138.5q0 -68 -64 -146t-158.5 -130.5t-176.5 -52.5q-109 0 -158 55z" />
<glyph unicode="t" horiz-adv-x="464" d="M0 934l55 86q55 9 119 16l14 97l129 73l-22 -164q127 5 149 5q72 0 152 -9l-109 -98q-82 4 -135 4h-73l-11 -80q-25 -199 -39 -302.5t-41.5 -239t-58.5 -211.5l6 -5q97 69 225.5 218t241.5 313l21 -12q-152 -229 -314 -414t-270 -231q-4 50 -4 77q0 39 4 82.5t15 120.5 t23 150t37 230t48 302q-60 0 -162 -8z" />
<glyph unicode="u" horiz-adv-x="940" d="M39 823l4 23q5 8 15 20.5t40 46t60.5 60t74 51.5t82.5 31q-35 -179 -54 -287t-37.5 -266.5t-18.5 -282.5q0 -33 10 -84q101 98 219 288t209 425q14 37 22 56.5t22.5 48.5t27 45t30.5 31.5t39 23.5l-145 -832q-9 -48 -31 -110l6 -5q97 69 225.5 218t241.5 313l21 -12 q-152 -229 -314 -414t-270 -231q-4 50 -4 77q0 63 11 151.5t22 150t30.5 160t24.5 122.5l-6 4q-73 -149 -150.5 -277.5t-169 -238.5t-167.5 -147q-23 79 -23 182q0 111 31 338l55 418z" />
<glyph unicode="v" horiz-adv-x="698" d="M-43 821l4 23q5 8 15 20.5t40 46t60.5 60t74 51.5t82.5 31q39 -36 39 -113q0 -88 -2 -267t-2 -270q0 -182 4 -276q76 76 164 273t129 372q0 24 -12 119t-12 119q0 19 15.5 35.5t35.5 17.5q27 -7 48.5 -26t29.5 -38q-64 -348 -194 -623t-281 -388q-27 91 -40.5 204 t-15.5 193t-2 223q0 194 -6 338z" />
<glyph unicode="w" horiz-adv-x="1126" d="M-43 821l4 23q5 8 15 20.5t40 46t60.5 60t74 51.5t82.5 31q39 -36 39 -113q0 -88 -2 -267t-2 -270q0 -182 4 -276q74 74 162.5 270.5t138.5 382.5q-1 26 -4 52t-8.5 61t-7.5 55l106 113q28 -3 38 -41.5t10 -110.5v-108q0 -65 -2.5 -197.5t-2.5 -200.5q0 -159 5 -276 q76 76 163.5 273t128.5 372q0 24 -12 119t-12 119q0 19 15.5 35.5t35.5 17.5q27 -7 48.5 -26t29.5 -38q-64 -348 -194 -623t-281 -388q-20 69 -31.5 153.5t-15 140.5t-6.5 168t-5 158l-2 41q-64 -227 -163.5 -402t-210.5 -259q-39 139 -50.5 293t-11.5 389q0 238 -2 276z " />
<glyph unicode="x" horiz-adv-x="745" d="M-141 -2l2 2v-2q1 0 8.5 10t23.5 31t31 39q79 0 124 26.5t79 79.5q105 162 168 269q-85 238 -166 491q-51 -23 -168 -115l-10 7q52 77 132.5 145t143.5 76q86 -208 154 -453q24 43 58 111.5t53 105t52 82.5t65 69t81.5 39.5t112.5 16.5h2l-51 -80q-40 4 -64 4 q-36 0 -51.5 -8t-40.5 -43q-15 -20 -52 -88.5t-84 -158t-61 -115.5q97 -316 144 -455q24 11 85.5 53t94.5 68l10 -6q-52 -77 -132.5 -145.5t-143.5 -76.5q-83 197 -144 422q-88 -144 -141 -219q-3 -4 -9 -13q-23 -34 -36.5 -52t-39 -46t-47 -42t-53.5 -25.5t-67 -11.5 q-32 0 -63 8z" />
<glyph unicode="y" horiz-adv-x="864" d="M-31 -422l80 125q92 -27 166 -27t119.5 11t82.5 44t58 93.5t33 159.5q44 345 94 657l-6 4q-73 -149 -150.5 -277.5t-169 -238.5t-167.5 -147q-16 53 -21 114q-3 28 -3 60q0 41 4 90q7 88 12 132.5t20 156.5l51 385l-133 -97l4 23q5 8 15 20.5t40 46t60.5 60t74 51.5 t82.5 31q-38 -195 -57.5 -310.5t-37.5 -286.5q-14 -133 -14 -243q0 -30 1 -59l8 -21q101 97 218 287t208 426q3 6 16 38.5t18.5 44t19 37t24.5 38t28.5 26.5t36.5 21q-4 -30 -13 -72t-11 -57q-21 -105 -38 -217.5t-39 -290.5t-34 -262q-39 -284 -169 -439t-353 -155 q-84 0 -158 18z" />
<glyph unicode="z" horiz-adv-x="688" d="M-119 0q102 142 318.5 452t296.5 429q6 9 6 16q0 4 -21.5 11t-60.5 12.5t-78 5.5q-88 0 -165 -25.5t-161 -79.5l-12 21q48 69 127.5 131.5t153.5 62.5q24 0 107.5 -9t135.5 -9q125 0 148 35l12 -6q-266 -359 -629 -897q-15 -25 -36 -46l6 -6q40 17 153 17 q50 0 154.5 -16.5t167.5 -16.5q48 0 127 51l10 -12q-50 -39 -85 -72t-45 -45t-24 -18t-41 -6q-58 0 -182.5 18t-169.5 18q-112 0 -192 -34z" />
<glyph unicode="{" horiz-adv-x="763" d="M195 721l32 55q24 0 39 6q51 18 82 67t40.5 115t17.5 145t12.5 158t25.5 153t56 131t106 91.5t172 34.5l15 -26q-79 -10 -129.5 -59t-73 -120.5t-35 -157.5t-24.5 -174.5t-32 -165t-66.5 -136t-119.5 -82.5q-15 -6 -63 -6l-4 -7q43 0 67 -8q59 -21 100 -68.5t48 -111.5 q8 -74 -18 -199t-51.5 -247.5t-18.5 -192.5q10 -120 127 -125l-21 -29q-103 15 -160.5 68t-66.5 133q-8 75 21.5 195.5t59.5 238.5t23 185q-6 58 -40 95.5t-95 41.5z" />
<glyph unicode="|" horiz-adv-x="526" d="M236 1749l118 86l-24 -2181l-90 -90z" />
<glyph unicode="}" horiz-adv-x="741" d="M76 -240l8 31q57 3 94.5 37t54.5 88.5t25.5 125t13 148t11 155t24.5 148t49.5 125t90.5 88.5t143 37l6 7h-14q-89 0 -133 52t-52 136t18.5 280.5t18.5 272.5q-17 144 -135 160l16 26q116 0 176 -53t70 -145q4 -43 -14.5 -150t-35.5 -225.5t-9 -192.5q10 -108 73 -129 q18 -9 68 -12l-22 -49q-59 -1 -100.5 -27.5t-63 -55t-34 -98.5t-15 -104.5t-5.5 -127.5q-4 -99 -7.5 -151t-22 -135.5t-50.5 -128t-95 -84t-152 -49.5z" />
<glyph unicode="~" horiz-adv-x="1536" d="M164 522q108 86 205.5 136.5t191.5 50.5q50 0 121.5 -19.5t135.5 -43t156.5 -43t178.5 -19.5q88 0 205 57l26 -25q-111 -137 -282 -137q-80 0 -163 18.5t-140.5 41t-128 41t-129.5 18.5q-203 0 -359 -113z" />
<glyph unicode="&#xa1;" horiz-adv-x="710" d="M72 -653q23 170 32.5 236t31 205t36 207.5t41 185t53.5 199.5t65.5 188.5t84.5 211.5l51 -20q-190 -776 -227 -1305zM344 1047l148 141q61 -48 137 -166l-144 -131q-3 4 -55 65t-86 91z" />
<glyph unicode="&#xa2;" horiz-adv-x="702" d="M31 406q0 116 44.5 238t132.5 225t200 149l45 291l79 -25l-38 -240q41 9 81 9q37 0 72 -7.5t51 -15.5l17 -8q-8 -11 -40 -50.5t-48 -64.5q-72 40 -148 43l-123 -792q133 22 258 75l13 -26q-127 -72 -281 -109l-43 -274l-78 37l37 231q-115 13 -173 99t-58 215zM147 553 q0 -115 35.5 -217.5t93.5 -147.5l119 754q-86 -19 -143.5 -80t-81 -139t-23.5 -170z" />
<glyph unicode="&#xa3;" horiz-adv-x="1081" d="M-102 -49q0 18 11.5 36.5t37 39.5t39.5 31t45 30q91 58 159 145.5t82 192.5l41 311h-8q-41 0 -123.5 1t-122.5 1l82 101h187l39 280q9 66 50 135.5t100 125t136 91t152 35.5q124 0 221 -94l-111 -78q-132 99 -225 99q-152 0 -190 -258l-47 -332h348l-84 -66 q-118 -32 -279 -39l-28 -196q-17 -120 -47.5 -196.5t-70.5 -122.5t-120 -113q279 -68 502 -68q132 0 189 41.5t57 128.5q0 71 -35 117l133 65q39 -39 39 -110q0 -76 -80.5 -162t-195.5 -142.5t-210 -56.5q-91 0 -257.5 37t-243.5 37q-49 0 -92.5 -20t-67.5 -44q-12 3 -12 17 z" />
<glyph unicode="&#xa4;" horiz-adv-x="1687" d="M379 182q115 115 153 150q-92 128 -92 266q0 154 92 264q-13 13 -68 67t-85 85q13 14 39.5 41t40.5 41q25 -25 75.5 -76t77.5 -78q121 92 269 92q67 0 139.5 -23.5t126.5 -68.5q25 26 153 154q13 -14 39.5 -41t40.5 -41q-29 -31 -86.5 -87t-66.5 -65q92 -121 92 -264 q0 -46 -21 -110.5t-42.5 -107.5t-28.5 -48q78 -71 153 -150q-53 -53 -80 -82q-25 25 -75.5 76t-77.5 78q-112 -94 -266 -94q-159 0 -269 94q-27 -27 -77.5 -78t-75.5 -76q-27 29 -80 82zM555 600q0 -133 96 -229.5t230 -96.5q133 0 228 96.5t95 229.5q0 137 -98 228.5 t-223 91.5q-139 0 -233.5 -95t-94.5 -225z" />
<glyph unicode="&#xa5;" horiz-adv-x="1202" d="M-31 930q4 97 23.5 185.5t58.5 168.5t93.5 138.5t133.5 93t173 34.5q52 0 100.5 -82.5t80.5 -218t38 -284.5h16q102 254 252.5 398t337.5 144q65 0 121 -26l-109 -86q-76 39 -129 39q-54 0 -111 -41t-104 -105.5t-89 -144t-70 -157.5t-42 -144h310l-64 -74 q-149 -22 -260 -27l-35 -174h328l-43 -63q-172 -43 -301 -43q-23 -118 -60 -185.5t-118 -142.5l6 -16h125q71 0 141.5 21t122.5 55l8 -17q-23 -18 -55 -44t-49.5 -40t-40.5 -32t-36 -27t-27 -18.5t-23.5 -13t-16.5 -3.5q-250 0 -385 2l-8 16q48 10 87 38.5t65.5 66.5 t49 96.5t36.5 113.5t30 134q-46 0 -135 1t-116 1l86 102h180l33 168q-61 0 -148 1t-123 1l86 101h191q-1 139 -24 261t-57 201.5t-73 125t-76 45.5q-113 0 -171.5 -105t-67.5 -328z" />
<glyph unicode="&#xa6;" horiz-adv-x="507" d="M184 1667l119 86l-16 -786h-97zM188 -334v817h95l-9 -727z" />
<glyph unicode="&#xa7;" horiz-adv-x="1105" d="M-12 -193q129 76 147 84q83 -61 197 -61q87 0 143.5 64t56.5 153q0 65 -37.5 131.5t-91 124.5t-107 116.5t-91 130t-37.5 144.5q0 91 65.5 209t155.5 160q-6 27 -6 57q0 74 48.5 152.5t120.5 136.5t156 95.5t154 37.5q64 0 128.5 -19.5t90.5 -60.5l-139 -82 q-72 58 -190 58q-90 0 -151.5 -61.5t-61.5 -151.5q0 -65 37.5 -129.5t90.5 -120.5t106 -114.5t90.5 -133.5t37.5 -156q0 -83 -67 -201.5t-146 -154.5q4 -32 4 -51q0 -95 -78.5 -198.5t-192 -170.5t-212.5 -67q-63 0 -128 19.5t-93 59.5zM330 776q0 -69 23.5 -130.5t64 -111 t82.5 -91t90 -91t76 -92.5q75 124 75 229q0 73 -23.5 134t-63.5 108.5t-82 88t-90 91t-76 99.5q-76 -120 -76 -234z" />
<glyph unicode="&#xa8;" horiz-adv-x="1019" d="M283 1491l110 102q27 -22 39 -32.5t28.5 -30t31.5 -43.5l-105 -113q-6 8 -21.5 27.5t-25.5 31t-26 28.5t-31 30zM670 1491l110 102q61 -39 97 -106l-93 -113q-63 80 -114 117z" />
<glyph unicode="&#xa9;" horiz-adv-x="1730" d="M246 590q0 165 47 305t136.5 245t231 164.5t320.5 59.5q134 0 247 -51t186 -135t113 -189t40 -215q0 -170 -51.5 -312.5t-146.5 -244t-235.5 -158.5t-312.5 -57q-124 0 -233.5 52t-183 136t-116 189t-42.5 211zM337 724q-8 -205 94 -373q107 -178 293 -233 q72 -22 153 -22q296 0 459 185q128 146 137 360q9 204 -93 372q-108 178 -295 234q-76 23 -159 23q-293 0 -454 -185q-127 -147 -135 -361zM535 700q0 63 26 128t75.5 122t133 93t186.5 36q74 0 144 -22t90 -51v-129h-33q-3 23 -14.5 46t-34 46.5t-63.5 38t-95 14.5 q-124 0 -198 -91.5t-74 -221.5q0 -100 31.5 -180.5t97.5 -130.5t158 -50q46 0 83.5 12.5t64.5 36t42.5 42.5t32.5 46h31l-29 -131q-21 -23 -101 -43t-143 -20q-86 0 -158 23.5t-130 70.5t-90.5 128t-32.5 187z" />
<glyph unicode="&#xaa;" horiz-adv-x="620" d="M90 940q0 131 35 250q39 135 109.5 201.5t199.5 66.5q98 0 133 -6l-41 -215q-42 -231 -86 -358l4 -9q89 77 99 86l10 -16q-102 -107 -164 -141l-8 16q14 130 43 336q3 15 12 33l-6 4l-14 -23q-76 -119 -145 -205t-162 -163q-19 62 -19 143zM184 936q63 57 146 197 t106 229q-19 8 -71 8q-84 0 -112.5 -35t-51.5 -147q-9 -46 -16.5 -131t-0.5 -121z" />
<glyph unicode="&#xab;" horiz-adv-x="1472" d="M160 569q146 103 258 216t174 204l86 -100q-57 -65 -169.5 -163.5t-205.5 -156.5q93 -54 203 -141.5t164 -144.5l-78 -119q-64 89 -176.5 199t-255.5 206zM690 569q146 103 258 216t174 204l86 -100q-57 -66 -169 -164t-205 -156q93 -54 202 -141.5t164 -144.5l-78 -119 q-64 89 -176.5 199t-255.5 206z" />
<glyph unicode="&#xac;" horiz-adv-x="1220" d="M127 559l47 82h840q31 0 51 -22t20 -60v-389l-86 -57l-2 368q0 55 -11 66.5t-54 11.5h-805z" />
<glyph unicode="&#xad;" horiz-adv-x="819" d="M92 600l58 109q291 -3 616 65l-64 -110q-293 -67 -610 -64z" />
<glyph unicode="&#xae;" horiz-adv-x="1576" d="M133 590q0 165 47 305t136.5 245t231 164.5t320.5 59.5q134 0 247 -51t186 -135t113 -189t40 -215q0 -227 -88.5 -401.5t-258 -272.5t-398.5 -98q-124 0 -233.5 52t-183.5 136t-116.5 189t-42.5 211zM223 696q0 -113 36.5 -220t103.5 -192t171.5 -136.5t229.5 -51.5 q120 0 220 32t168.5 86.5t116 128.5t69.5 156.5t22 170.5q0 90 -23 176.5t-69.5 163t-110.5 134.5t-153 92t-191 34q-119 0 -217.5 -32t-166.5 -86.5t-115 -128.5t-69 -156.5t-22 -170.5zM481 301v33q31 5 68 16v662q-30 12 -68 18v33h86q64 0 153.5 9t119.5 9q49 0 92 -11 t82 -35.5t61.5 -69.5t22.5 -107q0 -178 -195 -213l-10 -14q7 -11 37 -53.5t40 -56.5l35 -49t39.5 -51.5t36 -41.5t41 -42t39.5 -32l-37 -53q-193 124 -399 420l8 8q18 -6 39 -6q103 0 152 58t49 136q0 80 -45.5 115t-116.5 35q-59 0 -129 -19v-651q15 -6 53 -14v-33h-254z " />
<glyph unicode="&#xaf;" horiz-adv-x="720" d="M117 1665l94 107q38 9 80 14.5t98 6.5t83 1t97.5 -3t77.5 -3l-108 -111q-80 5 -203 4t-219 -16z" />
<glyph unicode="&#xb0;" horiz-adv-x="749" d="M72 1235q0 146 93.5 239t223.5 93q119 0 201 -77.5t82 -217.5q0 -144 -95.5 -236t-228.5 -92q-116 0 -196 78.5t-80 212.5zM152 1268q0 -128 64.5 -200.5t170.5 -72.5q84 0 143.5 69t59.5 177q0 124 -60 196t-163 72q-93 0 -154 -65.5t-61 -175.5z" />
<glyph unicode="&#xb1;" horiz-adv-x="1271" d="M98 -4l111 110h985l-111 -110h-985zM98 772l111 111h377v374l110 111v-485h498l-111 -111h-387v-389l-110 -111v500h-488z" />
<glyph unicode="&#xb2;" horiz-adv-x="724" d="M127 924q92 72 171 148t143.5 170t64.5 163q0 111 -100 111q-61 0 -193 -54l-10 27q128 98 256 98q68 0 109.5 -32t41.5 -101q0 -60 -31.5 -126.5t-84 -127.5t-106 -111t-112.5 -94l5 -12h239q97 0 174 59l13 -18l-142 -113l-432 2z" />
<glyph unicode="&#xb3;" horiz-adv-x="833" d="M145 915l39 82q35 -22 86 -36.5t99 -14.5q84 0 116.5 33t32.5 106q0 53 -32.5 94t-92.5 48l-12 22q57 30 97 76.5t40 106.5q0 47 -22 75.5t-64 28.5q-59 0 -147 -47l-21 29q141 84 203 84t97.5 -35t35.5 -105q0 -51 -42.5 -108.5t-102.5 -93.5l4 -9q20 4 30 4 q56 0 88.5 -38t32.5 -84q0 -78 -48 -140.5t-115 -92.5t-134 -30q-40 0 -89.5 12.5t-78.5 32.5z" />
<glyph unicode="&#xb4;" d="M84 1217q92 130 146.5 192t119.5 102q74 44 176 41l-30 -79q-58 -11 -129 -56q-119 -76 -254 -235z" />
<glyph unicode="&#xb6;" horiz-adv-x="1140" d="M98 758q0 146 76 271t201.5 197t267.5 72q57 0 115 -12q9 78 48 158t99 147t145.5 109.5t176.5 42.5q58 0 100 -10l-84 -111q-58 12 -129 12q-47 0 -85 -21.5t-63.5 -61.5t-44 -84t-30.5 -104t-19 -105t-14.5 -103.5t-11.5 -83.5q-27 -166 -67.5 -458t-65.5 -457 q-46 -310 -168 -452t-320 -142q-43 0 -90 12l78 113q66 -17 125 -17q77 0 139.5 76.5t85.5 241.5l45 323q-62 -10 -104 -10q-62 0 -119.5 16.5t-110 52t-91.5 88t-62 129.5t-23 171zM428 692q0 -134 57.5 -228.5t147.5 -94.5q19 0 29 12q108 560 108 745q0 113 -45 113 q-80 0 -139 -42.5t-92.5 -119.5t-49.5 -172.5t-16 -212.5z" />
<glyph unicode="&#xb7;" horiz-adv-x="702" d="M193 610l172 189q38 -26 89 -81t74 -91l-184 -183q-1 1 -57.5 67t-93.5 99z" />
<glyph unicode="&#xb8;" horiz-adv-x="800" d="M193 -377l92 80q44 -80 135 -80q84 0 84 31q0 54 -65.5 107.5t-159.5 86.5l231 195l35 -31q-30 -27 -81 -70t-52 -44q61 -16 122.5 -68.5t61.5 -95.5q0 -74 -77 -133.5t-177 -59.5q-46 0 -86.5 20t-62.5 62z" />
<glyph unicode="&#xb9;" horiz-adv-x="630" d="M141 1382q49 52 132 109t147 88q8 -3 11.5 -9t4 -12.5t0.5 -22.5v-9q0 -58 -12 -148t-37.5 -238t-32.5 -196l-104 -113l-4 9q64 405 96 635q-105 -54 -186 -115z" />
<glyph unicode="&#xba;" horiz-adv-x="677" d="M80 1044q0 136 102 262t238 160q51 -22 84 -96.5t33 -140.5q0 -130 -103.5 -259.5t-238.5 -162.5q-54 21 -84.5 93t-30.5 144zM193 1108q0 -44 2 -71.5t14.5 -68.5t36.5 -79q184 69 184 272q0 44 -2.5 71.5t-15.5 68.5t-39 79q-180 -77 -180 -272z" />
<glyph unicode="&#xbb;" horiz-adv-x="1370" d="M178 889l86 100q61 -89 174 -203t258 -217q-143 -96 -255.5 -206t-176.5 -199l-78 119q55 57 165 144t206 140h-2q-93 58 -206.5 157.5t-170.5 164.5zM709 889l86 100q61 -89 174 -203t258 -217q-143 -96 -255.5 -206t-176.5 -199l-78 119q56 58 165 144.5t205 139.5h-2 q-93 58 -206 157t-170 165z" />
<glyph unicode="&#xbc;" horiz-adv-x="2107" d="M211 2q75 98 261.5 337.5t311.5 402.5t298.5 410t310.5 470l100 -102q-160 -264 -547.5 -748t-695.5 -813zM387 1417q83 88 279 197q26 0 26 -53q0 -85 -23 -217t-56 -285t-44 -223l-104 -113q-10 3 -10 27v8q12 124 57 354.5t61 386.5q-21 -8 -79.5 -43t-92.5 -61z M946 283q40 21 128.5 131.5t177.5 250.5t122 230q61 61 180 106q25 0 25 -43q-9 -139 -36 -320t-38 -278q98 0 155 8.5t120 34.5l18 -43q-124 -84 -299 -84q-6 -36 -13 -103t-16 -110l-98 -92q-6 2 -6 29q2 42 6.5 82.5t13 96t13.5 97.5q-24 0 -89.5 1t-103.5 1t-100.5 -4 t-120.5 -12zM1124 369l6 -9h277q32 249 51 508h-4q-55 -128 -145 -263.5t-185 -235.5z" />
<glyph unicode="&#xbd;" horiz-adv-x="2154" d="M305 2q75 98 261.5 337.5t311.5 402.5t298.5 410t310.5 470l100 -102q-160 -264 -547.5 -748t-695.5 -813zM481 1417q83 88 279 197q26 0 26 -53q0 -85 -23 -217t-55.5 -285.5t-43.5 -222.5l-105 -113q-10 3 -10 27v8q12 124 57.5 354.5t61.5 386.5q-21 -8 -79.5 -43 t-92.5 -61zM1255 231q387 316 387 498q0 109 -94 109q-16 0 -33.5 -2.5t-42.5 -10.5t-34.5 -11t-41.5 -16l-32 -12l-10 27q128 98 256 98q68 0 109.5 -32t41.5 -101q0 -65 -33 -138t-88.5 -139t-112.5 -120t-120 -102l4 -13h195q136 0 219 60l14 -31l-143 -98h-432z" />
<glyph unicode="&#xbe;" horiz-adv-x="2088" d="M211 2q75 98 261.5 337.5t311.5 402.5t298.5 410t310.5 470l100 -102q-160 -264 -547.5 -748t-695.5 -813zM233 885l43 86q39 -24 95.5 -38.5t111.5 -14.5q95 0 131.5 35t36.5 110q0 54 -36.5 96t-102.5 51l-14 43q62 29 98.5 69t36.5 103q0 107 -86 107q-58 0 -158 -47 l-24 43q144 74 229 74q70 0 109.5 -36.5t39.5 -109.5q0 -54 -48 -114.5t-115 -98.5l4 -8q24 4 34 4q63 0 99.5 -39.5t36.5 -87.5q0 -76 -53.5 -146.5t-130 -110.5t-148.5 -40q-44 0 -100.5 19.5t-88.5 50.5zM946 283q40 21 128.5 131.5t177.5 250.5t122 230q61 61 180 106 q25 0 25 -43q-9 -139 -36 -320t-38 -278q98 0 155 8.5t120 34.5l18 -43q-124 -84 -299 -84q-6 -36 -13 -103t-16 -110l-98 -92q-6 2 -6 29q2 42 6.5 82.5t13 96t13.5 97.5q-25 0 -77.5 1.5t-80.5 1.5q-120 0 -256 -17zM1124 369l6 -9h277q32 249 51 508h-4 q-55 -128 -145 -263.5t-185 -235.5z" />
<glyph unicode="&#xbf;" d="M-41 -317q0 70 31 141t80.5 131.5t109.5 119.5t119.5 114.5t109 106.5t80.5 104t31 100q0 119 -35 176q113 71 142 119l8 -2q35 -91 35 -185q0 -75 -31.5 -143.5t-81.5 -122.5t-111 -107t-122 -107t-111 -110.5t-81.5 -129t-31.5 -152.5q0 -94 41.5 -154.5t110.5 -60.5 q124 0 231 90l6 -31q-147 -147 -286 -147q-244 0 -244 250zM346 1012l148 141q61 -48 137 -166l-144 -131q-3 4 -55 65t-86 91z" />
<glyph unicode="&#xc0;" horiz-adv-x="1378" d="M-195 -16l97 131q78 -19 145 -19q68 0 106.5 16t76.5 62t104 156q47 78 274.5 509.5t325.5 585.5q-24 0 -97.5 3.5t-119.5 3.5q-47 0 -75.5 -1t-72 -6t-70.5 -14t-62.5 -27t-58 -43t-46.5 -63.5t-37.5 -87.5t-22 -116t-8.5 -148q-64 -42 -141 -111q0 395 260 608 q152 123 420 123q50 0 106.5 -3t126 -8t105.5 -7q-29 -59 -44.5 -239.5t-15.5 -420.5q0 -241 5.5 -385t20 -228.5t36 -113t57.5 -28.5q68 0 162 57l8 -16q-74 -65 -119 -98t-121 -79q-44 0 -75.5 14.5t-52 55t-32.5 78t-18.5 119.5t-8.5 141t-5 178h-373q-14 -27 -46 -91.5 t-53.5 -104t-45.5 -72.5q-117 -160 -235 -235.5t-253 -75.5h-127zM629 664h307q-2 76 -2 210q0 115 2 243.5t2 133.5q-63 -111 -168 -316t-141 -271zM680 1968q102 3 176 -41q65 -40 119 -102t147 -193l-30 -37q-46 54 -73 84t-79 77.5t-100 76.5q-20 12 -50.5 25.5 t-52.5 21.5t-26 8z" />
<glyph unicode="&#xc1;" horiz-adv-x="1402" d="M-195 -16l97 131q78 -19 145 -19q68 0 106.5 16t76.5 62t104 156q47 78 274.5 509.5t325.5 585.5q-24 0 -97.5 3.5t-119.5 3.5q-47 0 -75.5 -1t-72 -6t-70.5 -14t-62.5 -27t-58 -43t-46.5 -63.5t-37.5 -87.5t-22 -116t-8.5 -148q-64 -42 -141 -111q0 395 260 608 q152 123 420 123q50 0 106.5 -3t126 -8t105.5 -7q-29 -59 -44.5 -239.5t-15.5 -420.5q0 -241 5.5 -385t20 -228.5t36 -113t57.5 -28.5q68 0 162 57l8 -16q-74 -65 -119 -98t-121 -79q-44 0 -75.5 14.5t-52 55t-32.5 78t-18.5 119.5t-8.5 141t-5 178h-373q-14 -27 -46 -91.5 t-53.5 -104t-45.5 -72.5q-117 -160 -235 -235.5t-253 -75.5h-127zM629 664h307q-2 76 -2 210q0 115 2 243.5t2 133.5q-63 -111 -168 -316t-141 -271zM813 1626q93 131 147 193t119 102q74 44 176 41l-30 -80q-60 -12 -129 -55q-117 -75 -254 -236z" />
<glyph unicode="&#xc2;" horiz-adv-x="1378" d="M-195 -16l97 131q78 -19 145 -19q68 0 106.5 16t76.5 62t104 156q47 78 274.5 509.5t325.5 585.5q-24 0 -97.5 3.5t-119.5 3.5q-47 0 -75.5 -1t-72 -6t-70.5 -14t-62.5 -27t-58 -43t-46.5 -63.5t-37.5 -87.5t-22 -116t-8.5 -148q-64 -42 -141 -111q0 395 260 608 q152 123 420 123q50 0 106.5 -3t126 -8t105.5 -7q-29 -59 -44.5 -239.5t-15.5 -420.5q0 -241 5.5 -385t20 -228.5t36 -113t57.5 -28.5q68 0 162 57l8 -16q-74 -65 -119 -98t-121 -79q-44 0 -75.5 14.5t-52 55t-32.5 78t-18.5 119.5t-8.5 141t-5 178h-373q-14 -27 -46 -91.5 t-53.5 -104t-45.5 -72.5q-117 -160 -235 -235.5t-253 -75.5h-127zM629 664h307q-2 76 -2 210q0 115 2 243.5t2 133.5q-63 -111 -168 -316t-141 -271zM803 1655q83 90 148.5 141.5t146.5 71.5q47 -19 123.5 -74t113.5 -94l-71 -68q-51 49 -115 95.5t-109 60.5 q-61 -30 -97.5 -56t-119.5 -96z" />
<glyph unicode="&#xc3;" horiz-adv-x="1392" d="M-195 -16l97 131q78 -19 145 -19q68 0 106.5 16t76.5 62t104 156q47 78 274.5 509.5t325.5 585.5q-24 0 -97.5 3.5t-119.5 3.5q-47 0 -75.5 -1t-72 -6t-70.5 -14t-62.5 -27t-58 -43t-46.5 -63.5t-37.5 -87.5t-22 -116t-8.5 -148q-64 -42 -141 -111q0 395 260 608 q152 123 420 123q50 0 106.5 -3t126 -8t105.5 -7q-29 -59 -44.5 -239.5t-15.5 -420.5q0 -241 5.5 -385t20 -228.5t36 -113t57.5 -28.5q68 0 162 57l8 -16q-74 -65 -119 -98t-121 -79q-44 0 -75.5 14.5t-52 55t-32.5 78t-18.5 119.5t-8.5 141t-5 178h-373q-14 -27 -46 -91.5 t-53.5 -104t-45.5 -72.5q-117 -160 -235 -235.5t-253 -75.5h-127zM629 664h307q-2 76 -2 210q0 115 2 243.5t2 133.5q-63 -111 -168 -316t-141 -271zM664 1714q100 103 235 156q45 0 123.5 -36t128.5 -36q43 0 107.5 21t95.5 45l16 -23q-59 -60 -114 -94.5t-130 -52.5 q-45 0 -123.5 37.5t-128.5 37.5q-42 0 -103.5 -28t-96.5 -58z" />
<glyph unicode="&#xc4;" horiz-adv-x="1378" d="M-195 -16l97 131q78 -19 145 -19q68 0 106.5 16t76.5 62t104 156q47 78 274.5 509.5t325.5 585.5q-24 0 -97.5 3.5t-119.5 3.5q-47 0 -75.5 -1t-72 -6t-70.5 -14t-62.5 -27t-58 -43t-46.5 -63.5t-37.5 -87.5t-22 -116t-8.5 -148q-64 -42 -141 -111q0 395 260 608 q152 123 420 123q50 0 106.5 -3t126 -8t105.5 -7q-29 -59 -44.5 -239.5t-15.5 -420.5q0 -241 5.5 -385t20 -228.5t36 -113t57.5 -28.5q68 0 162 57l8 -16q-74 -65 -119 -98t-121 -79q-44 0 -75.5 14.5t-52 55t-32.5 78t-18.5 119.5t-8.5 141t-5 178h-373q-14 -27 -46 -91.5 t-53.5 -104t-45.5 -72.5q-117 -160 -235 -235.5t-253 -75.5h-127zM629 664h307q-2 76 -2 210q0 115 2 243.5t2 133.5q-63 -111 -168 -316t-141 -271zM737 1763l111 103q37 -30 57 -51t41 -56l-104 -112q-5 6 -17.5 21.5t-20 24.5t-19.5 22.5t-24 25t-24 22.5zM1124 1763 l111 103q59 -38 96 -107l-92 -112q-60 76 -115 116z" />
<glyph unicode="&#xc5;" horiz-adv-x="1378" d="M-195 -16l97 131q78 -19 145 -19q68 0 106.5 16t76.5 62t104 156q47 78 274.5 509.5t325.5 585.5q-24 0 -97.5 3.5t-119.5 3.5q-47 0 -75.5 -1t-72 -6t-70.5 -14t-62.5 -27t-58 -43t-46.5 -63.5t-37.5 -87.5t-22 -116t-8.5 -148q-64 -42 -141 -111q0 395 260 608 q152 123 420 123q50 0 106.5 -3t126 -8t105.5 -7q-29 -59 -44.5 -239.5t-15.5 -420.5q0 -241 5.5 -385t20 -228.5t36 -113t57.5 -28.5q68 0 162 57l8 -16q-74 -65 -119 -98t-121 -79q-44 0 -75.5 14.5t-52 55t-32.5 78t-18.5 119.5t-8.5 141t-5 178h-373q-14 -27 -46 -91.5 t-53.5 -104t-45.5 -72.5q-117 -160 -235 -235.5t-253 -75.5h-127zM629 664h307q-2 76 -2 210q0 115 2 243.5t2 133.5q-63 -111 -168 -316t-141 -271zM950 1761q0 56 38 103.5t93 72.5q79 0 118.5 -33t39.5 -79q0 -68 -45 -123t-113 -55q-55 0 -93 32.5t-38 81.5zM1006 1788 q0 -26 36.5 -51t79.5 -25q31 9 51.5 28.5t20.5 43.5q0 45 -36.5 71.5t-86.5 26.5q-25 -13 -42.5 -40t-22.5 -54z" />
<glyph unicode="&#xc6;" horiz-adv-x="1777" d="M-197 -16l97 131q78 -19 145 -19q49 0 81.5 9t66.5 39t61.5 68.5t77.5 117.5q54 86 287.5 515t332.5 580q-24 0 -97.5 3.5t-119.5 3.5q-61 0 -97 -2t-90 -12t-86.5 -29t-70.5 -56t-59 -89.5t-35 -133t-14 -184.5q-67 -45 -142 -111q0 395 260 608q88 71 212 95t364 24 q29 0 190.5 -2t311.5 -2q243 0 311 2l-115 -121q-40 0 -217.5 1t-257.5 1q-15 -37 -20 -69l-70 -441h29q49 0 126 -4t115 -4q102 0 199 21l10 -9q-37 -53 -98 -94t-129 -41q-18 0 -102 2t-173 2q-39 -255 -69 -403q-13 -64 -47 -121t-107 -127l8 -18h533q140 0 252 78l8 -17 q-171 -130 -240 -178h-784l-8 18q47 10 85 37.5t61.5 60.5t42.5 80.5t28 83.5t18 84q5 32 17.5 99.5t17.5 101.5h-340q-110 -212 -145 -268q-103 -164 -220.5 -237.5t-267.5 -73.5h-127zM631 664h289q15 94 35.5 227.5t31 195.5t25.5 138t30 120t35 76q-42 -41 -92 -112 t-107.5 -174t-91.5 -166t-92.5 -180z" />
<glyph unicode="&#xc7;" horiz-adv-x="1079" d="M72 463q0 139 41 292t115.5 290.5t169.5 249t211.5 177.5t232.5 66q142 0 278 -41l-119 -154q-115 81 -231 107q-105 -1 -208.5 -75.5t-180 -190.5t-123.5 -266t-47 -297q0 -83 19 -163.5t55.5 -151.5t98.5 -123t140 -70q143 25 361 190l18 -16q-72 -91 -189 -180.5 t-218 -118.5q-13 -12 -103 -90q61 -16 123 -68.5t62 -95.5q0 -74 -77 -133.5t-177 -59.5q-47 0 -87.5 20t-62.5 62l92 80q44 -80 135 -80q84 0 84 31q0 54 -65.5 107.5t-159.5 86.5l166 140q-91 12 -161 57.5t-111 113t-61.5 144.5t-20.5 160z" />
<glyph unicode="&#xc8;" horiz-adv-x="1277" d="M-18 815q0 233 83.5 399.5t286.5 282.5q40 23 106 32t199 9h322q243 0 311 2l-114 -121q-40 0 -218 1t-258 1q-15 -37 -20 -69l-70 -441h29q49 0 126.5 -4t115.5 -4q101 0 198 21l11 -9q-37 -53 -98.5 -94t-129.5 -41q-18 0 -101.5 2t-172.5 2q-36 -235 -70 -403 q-13 -64 -46.5 -121t-106.5 -127l8 -16l485 -4q170 -9 299 80l8 -17q-182 -138 -239 -178l-785 2l-8 16q47 10 85 37.5t61.5 60.5t42.5 80.5t28.5 84t18.5 83.5q36 194 69.5 405.5t49 316.5t38.5 197.5t52 139.5h-84q-205 0 -288 -111.5t-83 -383.5zM449 1976q102 3 176 -41 q65 -40 119 -102t147 -193l-31 -36q-45 52 -72.5 83t-79.5 78t-100 76q-20 12 -50.5 25.5t-52.5 21.5t-26 8z" />
<glyph unicode="&#xc9;" horiz-adv-x="1277" d="M-18 815q0 233 83.5 399.5t286.5 282.5q40 23 106 32t199 9h322q243 0 311 2l-114 -121q-40 0 -218 1t-258 1q-15 -37 -20 -69l-70 -441h29q49 0 126.5 -4t115.5 -4q101 0 198 21l11 -9q-37 -53 -98.5 -94t-129.5 -41q-18 0 -101.5 2t-172.5 2q-36 -235 -70 -403 q-13 -64 -46.5 -121t-106.5 -127l8 -16l485 -4q170 -9 299 80l8 -17q-182 -138 -239 -178l-785 2l-8 16q47 10 85 37.5t61.5 60.5t42.5 80.5t28.5 84t18.5 83.5q36 194 69.5 405.5t49 316.5t38.5 197.5t52 139.5h-84q-205 0 -288 -111.5t-83 -383.5zM659 1630 q92 130 146.5 192.5t120.5 102.5q74 44 176 41l-31 -80q-60 -12 -129 -55q-117 -75 -254 -236z" />
<glyph unicode="&#xca;" horiz-adv-x="1277" d="M-18 815q0 233 83.5 399.5t286.5 282.5q40 23 106 32t199 9h322q243 0 311 2l-114 -121q-40 0 -218 1t-258 1q-15 -37 -20 -69l-70 -441h29q49 0 126.5 -4t115.5 -4q101 0 198 21l11 -9q-37 -53 -98.5 -94t-129.5 -41q-18 0 -101.5 2t-172.5 2q-36 -235 -70 -403 q-13 -64 -46.5 -121t-106.5 -127l8 -16l485 -4q170 -9 299 80l8 -17q-182 -138 -239 -178l-785 2l-8 16q47 10 85 37.5t61.5 60.5t42.5 80.5t28.5 84t18.5 83.5q36 194 69.5 405.5t49 316.5t38.5 197.5t52 139.5h-84q-205 0 -288 -111.5t-83 -383.5zM543 1642 q83 90 148.5 141.5t146.5 71.5q48 -19 124 -73.5t113 -93.5l-71 -68q-51 49 -115 95.5t-109 60.5q-61 -30 -97.5 -56t-119.5 -96z" />
<glyph unicode="&#xcb;" horiz-adv-x="1277" d="M-18 815q0 233 83.5 399.5t286.5 282.5q40 23 106 32t199 9h322q243 0 311 2l-114 -121q-40 0 -218 1t-258 1q-15 -37 -20 -69l-70 -441h29q49 0 126.5 -4t115.5 -4q101 0 198 21l11 -9q-37 -53 -98.5 -94t-129.5 -41q-18 0 -101.5 2t-172.5 2q-36 -235 -70 -403 q-13 -64 -46.5 -121t-106.5 -127l8 -16l485 -4q170 -9 299 80l8 -17q-182 -138 -239 -178l-785 2l-8 16q47 10 85 37.5t61.5 60.5t42.5 80.5t28.5 84t18.5 83.5q36 194 69.5 405.5t49 316.5t38.5 197.5t52 139.5h-84q-205 0 -288 -111.5t-83 -383.5zM385 1769l111 103 q37 -30 57 -51t41 -56l-105 -112q-5 6 -21.5 26.5t-26 31.5t-25.5 28t-31 30zM772 1769l111 103q59 -38 96 -107l-92 -112q-60 76 -115 116z" />
<glyph unicode="&#xcc;" horiz-adv-x="901" d="M-10 815q0 233 83.5 399.5t286.5 282.5q71 41 297 41h185l2 -6q-30 -18 -60 -65.5t-41 -114.5q-5 -29 -64 -397t-95 -574q-14 -64 -48.5 -121t-107.5 -127l8 -16q156 -7 252 7.5t176 68.5l8 -17q-165 -140 -204 -163q-22 -14 -35 -15q-59 0 -208 1t-220 1l-8 16 q47 10 85 37.5t61.5 60.5t42.5 80.5t28 83.5t18 84q37 201 72 416.5t51 320t37.5 193t46.5 129.5h-137q-205 0 -288 -111.5t-83 -383.5zM395 1964q102 3 176 -41q66 -40 120.5 -102.5t146.5 -192.5l-31 -37q-46 54 -73 84t-79 77.5t-100 76.5q-20 12 -50.5 25.5t-52.5 21.5 t-26 8z" />
<glyph unicode="&#xcd;" horiz-adv-x="940" d="M-10 815q0 233 83.5 399.5t286.5 282.5q71 41 297 41h185l2 -6q-30 -18 -60 -65.5t-41 -114.5q-5 -29 -64 -397t-95 -574q-14 -64 -48.5 -121t-107.5 -127l8 -16q156 -7 252 7.5t176 68.5l8 -17q-165 -140 -204 -163q-22 -14 -35 -15q-59 0 -208 1t-220 1l-8 16 q47 10 85 37.5t61.5 60.5t42.5 80.5t28 83.5t18 84q37 201 72 416.5t51 320t37.5 193t46.5 129.5h-137q-205 0 -288 -111.5t-83 -383.5zM614 1628q92 130 146.5 192.5t120.5 102.5q74 44 176 41l-31 -80q-60 -12 -129 -55q-117 -75 -254 -236z" />
<glyph unicode="&#xce;" horiz-adv-x="899" d="M-10 815q0 233 83.5 399.5t286.5 282.5q71 41 297 41h185l2 -6q-30 -18 -60 -65.5t-41 -114.5q-5 -29 -64 -397t-95 -574q-14 -64 -48.5 -121t-107.5 -127l8 -16q156 -7 252 7.5t176 68.5l8 -17q-165 -140 -204 -163q-22 -14 -35 -15q-59 0 -208 1t-220 1l-8 16 q47 10 85 37.5t61.5 60.5t42.5 80.5t28 83.5t18 84q37 201 72 416.5t51 320t37.5 193t46.5 129.5h-137q-205 0 -288 -111.5t-83 -383.5zM483 1661q83 90 148.5 141.5t146.5 71.5q47 -19 124 -74t114 -94l-72 -68q-51 49 -114.5 95.5t-108.5 60.5q-61 -30 -97.5 -56 t-119.5 -96z" />
<glyph unicode="&#xcf;" horiz-adv-x="901" d="M-10 815q0 233 83.5 399.5t286.5 282.5q71 41 297 41h185l2 -6q-30 -18 -60 -65.5t-41 -114.5q-5 -29 -64 -397t-95 -574q-14 -64 -48.5 -121t-107.5 -127l8 -16q156 -7 252 7.5t176 68.5l8 -17q-165 -140 -204 -163q-22 -14 -35 -15q-59 0 -208 1t-220 1l-8 16 q47 10 85 37.5t61.5 60.5t42.5 80.5t28 83.5t18 84q37 201 72 416.5t51 320t37.5 193t46.5 129.5h-137q-205 0 -288 -111.5t-83 -383.5zM424 1763l111 103q37 -30 57 -51t41 -56l-105 -112q-5 6 -21.5 26.5t-26 31.5t-25.5 28t-31 30zM811 1763l111 103q59 -38 96 -107 l-92 -112q-60 76 -115 116z" />
<glyph unicode="&#xd0;" horiz-adv-x="1474" d="M23 795q0 363 216.5 556t626.5 193q139 0 243 -40t164 -111.5t89 -162t29 -200.5q0 -134 -41 -279t-120 -278t-182.5 -239.5t-239.5 -170t-280 -63.5h-348l-8 16q47 10 85 37.5t61.5 60.5t42.5 80.5t28.5 84t18.5 83.5q38 212 61 367q-78 2 -207 2l66 127h34q78 0 127 -2 q47 293 73.5 408.5t70.5 173.5q-65 0 -130 -19t-128 -61t-111.5 -102t-78 -150t-29.5 -197zM403 133l9 -16h262q98 0 188.5 46.5t160 125.5t121.5 180t79.5 214.5t27.5 223.5q0 88 -17.5 165.5t-56 146.5t-96 118.5t-142.5 78t-189 28.5q-25 -57 -31 -92q-10 -57 -24 -142 t-31.5 -193t-26.5 -165q82 -2 192 -2q107 0 199 20l10 -8q-37 -53 -98 -94t-129 -41q-103 0 -195 2q-8 -66 -57 -348q-11 -62 -46 -119t-110 -129z" />
<glyph unicode="&#xd1;" horiz-adv-x="1665" d="M-59 815q0 233 83.5 399.5t286.5 282.5q39 23 103 31t200 8h193q261 -750 377 -1327q28 150 73 453.5t81.5 492.5t76.5 266q-169 7 -299 -12l-2 4q65 76 144.5 100.5t248.5 24.5h111l2 -6q-30 -18 -59.5 -65.5t-40.5 -114.5l-156 -906q-35 -202 -93.5 -307t-176.5 -159 l-9 16l56 31q-99 300 -238 689.5t-211 600.5q-34 -148 -69.5 -435t-57.5 -415q-42 -236 -159.5 -353t-292.5 -114l-111 2l96 131q74 -18 156 -18q51 0 82 33.5t51 134.5q51 265 90.5 541.5t60 412.5t44.5 184l-133 2q-199 3 -283 -112.5t-84 -384.5zM719 1716 q100 103 235 156q45 0 123.5 -36t128.5 -36q43 0 107.5 21t95.5 45l16 -23q-59 -60 -113.5 -94.5t-129.5 -52.5q-45 0 -123.5 38t-128.5 38q-42 0 -104 -28t-97 -58z" />
<glyph unicode="&#xd2;" horiz-adv-x="1202" d="M78 485q0 164 57.5 336t154 317.5t234.5 254.5t289 149q155 -45 231 -191t76 -350q0 -212 -92 -425.5t-256.5 -374t-359.5 -211.5q-166 43 -250 176t-84 319zM217 608q0 -177 75 -312.5t226 -191.5q132 40 240 163.5t165.5 285.5t57.5 326q0 193 -67 340t-207 208 q-139 -42 -253 -173t-175.5 -302.5t-61.5 -343.5zM582 1972q102 3 176 -41q65 -40 119 -102t147 -193l-31 -37q-46 54 -73 84t-79 77.5t-100 76.5q-20 12 -50.5 25.5t-52.5 21.5t-26 8z" />
<glyph unicode="&#xd3;" horiz-adv-x="1247" d="M78 485q0 164 57.5 336t154 317.5t234.5 254.5t289 149q155 -45 231 -191t76 -350q0 -212 -92 -425.5t-256.5 -374t-359.5 -211.5q-166 43 -250 176t-84 319zM217 608q0 -177 75 -312.5t226 -191.5q132 40 240 163.5t165.5 285.5t57.5 326q0 193 -67 340t-207 208 q-139 -42 -253 -173t-175.5 -302.5t-61.5 -343.5zM610 1630q92 130 146.5 192.5t120.5 102.5q74 44 176 41l-31 -80q-60 -12 -129 -55q-117 -75 -254 -236z" />
<glyph unicode="&#xd4;" horiz-adv-x="1202" d="M78 485q0 164 57.5 336t154 317.5t234.5 254.5t289 149q155 -45 231 -191t76 -350q0 -212 -92 -425.5t-256.5 -374t-359.5 -211.5q-166 43 -250 176t-84 319zM217 608q0 -177 75 -312.5t226 -191.5q132 40 240 163.5t165.5 285.5t57.5 326q0 193 -67 340t-207 208 q-139 -42 -253 -173t-175.5 -302.5t-61.5 -343.5zM586 1667q83 90 148.5 141.5t146.5 71.5q47 -19 123.5 -74t113.5 -94l-71 -67q-50 48 -114.5 94.5t-109.5 60.5q-62 -31 -98.5 -56.5t-118.5 -94.5z" />
<glyph unicode="&#xd5;" horiz-adv-x="1185" d="M59 485q0 164 57.5 336t154.5 317.5t235 254.5t289 149q155 -45 231 -191t76 -350q0 -212 -92.5 -425.5t-257 -374t-359.5 -211.5q-166 43 -250 176t-84 319zM199 608q0 -177 75 -312.5t226 -191.5q132 40 240 163.5t165.5 285.5t57.5 326q0 193 -67.5 340t-207.5 208 q-139 -42 -252.5 -173t-175 -302.5t-61.5 -343.5zM481 1735q98 101 236 155q45 0 123.5 -35.5t128.5 -35.5q44 0 107.5 20.5t94.5 44.5l17 -22q-59 -61 -114.5 -95.5t-129.5 -52.5q-45 0 -123.5 38t-128.5 38q-42 0 -103.5 -28t-96.5 -58z" />
<glyph unicode="&#xd6;" horiz-adv-x="1140" d="M78 485q0 164 57.5 336t154 317.5t234.5 254.5t289 149q155 -45 231 -191t76 -350q0 -212 -92 -425.5t-256.5 -374t-359.5 -211.5q-166 43 -250 176t-84 319zM217 608q0 -177 75 -312.5t226 -191.5q132 40 240 163.5t165.5 285.5t57.5 326q0 193 -67 340t-207 208 q-139 -42 -253 -173t-175.5 -302.5t-61.5 -343.5zM543 1776l110 102q27 -22 39 -32.5t28.5 -30t31.5 -43.5l-105 -113q-6 8 -21.5 27.5t-25.5 31t-26 28.5t-31 30zM930 1776l110 102q61 -39 97 -106l-93 -113q-63 80 -114 117z" />
<glyph unicode="&#xd7;" horiz-adv-x="1128" d="M92 31l397 440q-251 234 -389 449l109 106q124 -195 379 -432l389 432l45 -29l-397 -442q23 -23 81.5 -81t90 -89.5t78.5 -80.5t85 -93.5t72 -89.5v-2l-108 -107q-43 53 -98 113t-96 101l-107 107l-99 99l-397 -438z" />
<glyph unicode="&#xd8;" horiz-adv-x="1202" d="M78 -49q19 33 57 97t49 83q-106 132 -106 354q0 164 57.5 336t154 317.5t234.5 254.5t289 149q74 -23 123 -61q12 22 46 88.5t54 103.5l66 -59q-92 -176 -103 -197q121 -147 121 -416q0 -212 -92 -425.5t-256.5 -374t-359.5 -211.5q-70 16 -133 57q-46 -83 -113 -217z M217 608q0 -172 70 -303q283 496 563 1014q-59 68 -143 108q-139 -42 -253 -173t-175.5 -302.5t-61.5 -343.5zM360 205q63 -66 158 -101q132 40 240 163.5t165.5 285.5t57.5 326q0 209 -78 356q-30 -58 -235.5 -447t-307.5 -583z" />
<glyph unicode="&#xd9;" horiz-adv-x="1644" d="M-18 815q0 233 83.5 399.5t286.5 282.5q39 23 103 31t200 8h193l2 -6q-21 -13 -48.5 -60t-45.5 -106q-80 -435 -114 -657.5t-34 -323.5q0 -123 39 -186.5t125 -63.5q69 0 146 73t136.5 176.5t102.5 206t57 171.5l132 661q12 29 34.5 50.5t55.5 34.5t56 19t60 13l2 -6 q-30 -18 -59.5 -65.5t-40.5 -114.5q-12 -73 -47 -271.5t-63.5 -374t-49.5 -331.5q-4 -40 -4 -56q0 -94 42 -139t102 -45q82 0 178 58l8 -17q-73 -65 -117.5 -97t-122.5 -79q-211 3 -211 289q0 81 25 235h-10q-47 -128 -140.5 -251t-200.5 -199t-190 -76q-102 0 -148 89.5 t-46 238.5q0 107 18 215q19 124 40.5 275.5t32.5 229t26 161.5t30.5 133t36.5 83h-164q-193 0 -274.5 -115.5t-81.5 -381.5zM797 1962q102 3 176 -41q65 -40 119 -102t147 -193l-31 -37q-46 54 -73 84t-79 77.5t-100 76.5q-20 12 -50.5 25.5t-52.5 21.5t-26 8z" />
<glyph unicode="&#xda;" horiz-adv-x="1644" d="M-18 815q0 233 83.5 399.5t286.5 282.5q39 23 103 31t200 8h193l2 -6q-21 -13 -48.5 -60t-45.5 -106q-80 -435 -114 -657.5t-34 -323.5q0 -123 39 -186.5t125 -63.5q69 0 146 73t136.5 176.5t102.5 206t57 171.5l132 661q12 29 34.5 50.5t55.5 34.5t56 19t60 13l2 -6 q-30 -18 -59.5 -65.5t-40.5 -114.5q-12 -73 -47 -271.5t-63.5 -374t-49.5 -331.5q-4 -40 -4 -56q0 -94 42 -139t102 -45q82 0 178 58l8 -17q-73 -65 -117.5 -97t-122.5 -79q-211 3 -211 289q0 81 25 235h-10q-47 -128 -140.5 -251t-200.5 -199t-190 -76q-102 0 -148 89.5 t-46 238.5q0 107 18 215q19 124 40.5 275.5t32.5 229t26 161.5t30.5 133t36.5 83h-164q-193 0 -274.5 -115.5t-81.5 -381.5zM981 1632q93 131 147 193t119 102q74 44 176 41l-30 -80q-60 -12 -129 -55q-117 -75 -254 -236z" />
<glyph unicode="&#xdb;" horiz-adv-x="1644" d="M-18 815q0 233 83.5 399.5t286.5 282.5q39 23 103 31t200 8h193l2 -6q-21 -13 -48.5 -60t-45.5 -106q-80 -435 -114 -657.5t-34 -323.5q0 -123 39 -186.5t125 -63.5q69 0 146 73t136.5 176.5t102.5 206t57 171.5l132 661q12 29 34.5 50.5t55.5 34.5t56 19t60 13l2 -6 q-30 -18 -59.5 -65.5t-40.5 -114.5q-12 -73 -47 -271.5t-63.5 -374t-49.5 -331.5q-4 -40 -4 -56q0 -94 42 -139t102 -45q82 0 178 58l8 -17q-73 -65 -117.5 -97t-122.5 -79q-211 3 -211 289q0 81 25 235h-10q-47 -128 -140.5 -251t-200.5 -199t-190 -76q-102 0 -148 89.5 t-46 238.5q0 107 18 215q19 124 40.5 275.5t32.5 229t26 161.5t30.5 133t36.5 83h-164q-193 0 -274.5 -115.5t-81.5 -381.5zM905 1683q83 90 148.5 141.5t146.5 71.5q48 -20 124.5 -74.5t113.5 -92.5l-72 -68q-51 49 -114.5 95.5t-108.5 60.5q-61 -30 -97.5 -56t-119.5 -96z " />
<glyph unicode="&#xdc;" horiz-adv-x="1644" d="M-18 815q0 233 83.5 399.5t286.5 282.5q39 23 103 31t200 8h193l2 -6q-21 -13 -48.5 -60t-45.5 -106q-80 -435 -114 -657.5t-34 -323.5q0 -123 39 -186.5t125 -63.5q69 0 146 73t136.5 176.5t102.5 206t57 171.5l132 661q12 29 34.5 50.5t55.5 34.5t56 19t60 13l2 -6 q-30 -18 -59.5 -65.5t-40.5 -114.5q-12 -73 -47 -271.5t-63.5 -374t-49.5 -331.5q-4 -40 -4 -56q0 -94 42 -139t102 -45q82 0 178 58l8 -17q-73 -65 -117.5 -97t-122.5 -79q-211 3 -211 289q0 81 25 235h-10q-47 -128 -140.5 -251t-200.5 -199t-190 -76q-102 0 -148 89.5 t-46 238.5q0 107 18 215q19 124 40.5 275.5t32.5 229t26 161.5t30.5 133t36.5 83h-164q-193 0 -274.5 -115.5t-81.5 -381.5zM825 1784l111 102q26 -21 38.5 -32.5t28.5 -30.5t31 -43l-104 -113q-5 6 -22 27t-26 32t-25.5 28t-31.5 30zM1212 1784l111 102q59 -38 96 -106 l-92 -113q-62 78 -115 117z" />
<glyph unicode="&#xdd;" horiz-adv-x="1388" d="M-39 -207l119 86q132 -123 260 -123q42 0 81.5 22t78 61t86.5 111.5t95 155t114 209.5q-12 45 -60.5 239.5t-75.5 293t-71 248.5t-82 240.5t-72 133.5q-136 0 -202 -104t-66 -326l-141 -110q0 157 57.5 299.5t159.5 231.5t221 89q40 0 78 -31t69 -81t61 -126.5t54 -154 t49 -178t43.5 -184.5t40.5 -186q6 -29 9.5 -44.5t8.5 -39t9 -42.5q16 29 149 262.5t216 395t83 202.5q0 20 -13 32t-55.5 19t-119.5 7l-2 8l153 92h80q113 0 113 -82q0 -52 -88.5 -227.5t-223 -412t-137.5 -242.5q-104 -194 -177 -320t-142.5 -228t-133 -166.5t-131 -111.5 t-153.5 -86q-76 10 -167.5 56.5t-174.5 111.5zM881 1632q93 131 147 193t119 102q74 44 176 41l-31 -80q-60 -12 -129 -55q-117 -75 -254 -236z" />
<glyph unicode="&#xde;" horiz-adv-x="1282" d="M-18 -514l77 113q66 -17 125 -17q31 0 55.5 5.5t53.5 25t51 52.5t42.5 92.5t33.5 140.5q27 173 71.5 514t69.5 510q7 59 21 133q-27 -4 -76 -4q-243 0 -400 147l119 125q159 -162 373 -172q5 41 18 106q32 176 154.5 292t263.5 116q152 0 152 -137q0 -66 -27.5 -128 t-73.5 -111t-107.5 -91t-129 -71t-139.5 -48q-53 -347 -68 -432l6 -2q88 151 205.5 266.5t228.5 149.5q37 -60 50.5 -130t13.5 -196q0 -84 -20 -182t-59.5 -195.5t-92 -177t-123 -129t-145.5 -49.5q-72 0 -132 57q-4 -12 -14 -57q-127 -528 -487 -528q-43 0 -90 12zM580 143 q17 -12 61.5 -22t67.5 -10q160 0 224 133.5t64 435.5q0 162 -18 199q-31 1 -105 -54.5t-148 -146.5t-93 -170q-15 -65 -32 -174.5t-21 -190.5zM719 1159q62 9 121.5 28t113.5 48.5t87.5 73.5t33.5 96q0 69 -37.5 115.5t-105.5 46.5q-74 0 -120 -50.5t-64 -166.5 q-17 -100 -29 -191z" />
<glyph unicode="&#xdf;" horiz-adv-x="954" d="M-434 -414l82 105q75 -10 121 -10q45 0 74 4t56.5 17.5t44 35t33.5 61t29.5 91.5t26.5 130q30 167 76.5 562t87.5 608q44 224 176.5 360t322.5 136q205 0 205 -216q0 -68 -34 -140t-82.5 -135t-97 -124.5t-82.5 -129.5t-34 -130q0 -33 31.5 -74.5t76.5 -83.5t90 -88 t76.5 -104t31.5 -115q0 -90 -56 -173t-144.5 -132t-180.5 -49q-128 0 -179 47l105 108q44 -35 99.5 -56t96.5 -21q64 0 110 68.5t46 127.5q0 48 -34 102t-83 102t-98 97t-83 103t-34 104q0 56 34 117t82.5 118t97 119t82.5 141.5t34 162.5q0 198 -117 198q-84 0 -157 -63 t-120.5 -162.5t-68.5 -220.5q-28 -163 -75.5 -552t-81.5 -597q-18 -112 -68.5 -205t-117 -151t-139.5 -89.5t-142 -31.5q-61 0 -119 28z" />
<glyph unicode="&#xe0;" horiz-adv-x="835" d="M2 201q0 214 51 397q28 102 65 176.5t91.5 132.5t131 87.5t175.5 29.5q148 0 199 -10l-13 -60q-9 -55 -27.5 -152t-23.5 -130q-53 -343 -123 -561l7 -5q88 64 204 195.5t226 284.5l20 -15q-148 -215 -297 -381.5t-250 -209.5q-2 25 -2 77q0 92 10.5 168.5t34 186 t35.5 178.5l-6 4q-127 -215 -233.5 -358t-247.5 -267q-27 95 -27 232zM129 256q0 -82 12 -119q11 0 32 25t50 68t31 46q77 96 195 318t118 313q-47 13 -127 13q-58 0 -97 -5.5t-69.5 -23t-48.5 -39t-32.5 -65t-22.5 -88.5t-18 -121q-23 -187 -23 -322zM213 1552 q102 3 176 -41q65 -40 119.5 -102t146.5 -192l-30 -37q-45 52 -72.5 83t-79.5 78t-100 76q-20 12 -50.5 26t-52.5 22t-26 8z" />
<glyph unicode="&#xe1;" d="M6 201q0 214 51 397q28 102 65 176.5t91.5 132.5t131 87.5t175.5 29.5q148 0 199 -10l-12 -60q-10 -57 -28.5 -153.5t-23.5 -128.5q-53 -343 -123 -561l7 -5q88 64 204 195.5t226 284.5l20 -15q-148 -215 -297 -381.5t-250 -209.5q-2 25 -2 77q0 92 10.5 168.5t34 186 t35.5 178.5l-6 4q-127 -215 -233.5 -358t-247.5 -267q-27 95 -27 232zM133 256q0 -82 12 -119q11 0 32 25t50 68t31 46q77 96 195 318t118 313q-47 13 -127 13q-58 0 -97 -5.5t-69.5 -23t-48.5 -39t-32.5 -65t-22.5 -88.5t-18 -121q-23 -187 -23 -322zM440 1217 q91 129 146 191.5t121 102.5q74 44 176 41l-31 -79q-58 -11 -129 -56q-119 -76 -254 -235z" />
<glyph unicode="&#xe2;" d="M6 201q0 214 51 397q28 102 65 176.5t91.5 132.5t131 87.5t175.5 29.5q148 0 199 -10l-12 -60q-10 -57 -28.5 -153.5t-23.5 -128.5q-53 -343 -123 -561l7 -5q88 64 204 195.5t226 284.5l20 -15q-148 -215 -297 -381.5t-250 -209.5q-2 25 -2 77q0 92 10.5 168.5t34 186 t35.5 178.5l-6 4q-127 -215 -233.5 -358t-247.5 -267q-27 95 -27 232zM133 256q0 -82 12 -119q11 0 32 25t50 68t31 46q77 96 195 318t118 313q-47 13 -127 13q-58 0 -97 -5.5t-69.5 -23t-48.5 -39t-32.5 -65t-22.5 -88.5t-18 -121q-23 -187 -23 -322zM262 1354 q83 90 148.5 141.5t146.5 71.5q47 -19 124 -74t114 -94l-72 -68q-51 49 -114.5 95.5t-108.5 60.5q-61 -30 -97.5 -56t-119.5 -96z" />
<glyph unicode="&#xe3;" horiz-adv-x="843" d="M6 201q0 214 51 397q28 102 65 176.5t91.5 132.5t131 87.5t175.5 29.5q148 0 199 -10l-12 -60q-10 -57 -28.5 -153.5t-23.5 -128.5q-53 -343 -123 -561l7 -5q88 64 204 195.5t226 284.5l20 -15q-148 -215 -297 -381.5t-250 -209.5q-2 25 -2 77q0 92 10.5 168.5t34 186 t35.5 178.5l-6 4q-127 -215 -233.5 -358t-247.5 -267q-27 95 -27 232zM133 256q0 -82 12 -119q11 0 32 25t50 68t31 46q77 96 195 318t118 313q-47 13 -127 13q-58 0 -97 -5.5t-69.5 -23t-48.5 -39t-32.5 -65t-22.5 -88.5t-18 -121q-23 -187 -23 -322zM231 1360 q100 102 236 156q45 0 123.5 -36t128.5 -36q44 0 108 20.5t95 44.5l16 -22q-59 -61 -114.5 -95.5t-129.5 -52.5q-45 0 -123.5 38t-128.5 38q-42 0 -103.5 -28t-96.5 -58z" />
<glyph unicode="&#xe4;" d="M6 201q0 214 51 397q28 102 65 176.5t91.5 132.5t131 87.5t175.5 29.5q148 0 199 -10l-12 -60q-10 -57 -28.5 -153.5t-23.5 -128.5q-53 -343 -123 -561l7 -5q88 64 204 195.5t226 284.5l20 -15q-148 -215 -297 -381.5t-250 -209.5q-2 25 -2 77q0 92 10.5 168.5t34 186 t35.5 178.5l-6 4q-127 -215 -233.5 -358t-247.5 -267q-27 95 -27 232zM133 256q0 -82 12 -119q11 0 32 25t50 68t31 46q77 96 195 318t118 313q-47 13 -127 13q-58 0 -97 -5.5t-69.5 -23t-48.5 -39t-32.5 -65t-22.5 -88.5t-18 -121q-23 -187 -23 -322zM287 1452l110 102 q27 -22 39 -32.5t28.5 -30t31.5 -43.5l-105 -113q-6 8 -21.5 27.5t-25.5 31t-26 28.5t-31 30zM674 1452l110 102q61 -39 97 -106l-93 -113q-63 80 -114 117z" />
<glyph unicode="&#xe5;" d="M6 201q0 214 51 397q28 102 65 176.5t91.5 132.5t131 87.5t175.5 29.5q148 0 199 -10l-12 -60q-10 -57 -28.5 -153.5t-23.5 -128.5q-53 -343 -123 -561l7 -5q88 64 204 195.5t226 284.5l20 -15q-148 -215 -297 -381.5t-250 -209.5q-2 25 -2 77q0 92 10.5 168.5t34 186 t35.5 178.5l-6 4q-127 -215 -233.5 -358t-247.5 -267q-27 95 -27 232zM133 256q0 -82 12 -119q11 0 32 25t50 68t31 46q77 96 195 318t118 313q-47 13 -127 13q-58 0 -97 -5.5t-69.5 -23t-48.5 -39t-32.5 -65t-22.5 -88.5t-18 -121q-23 -187 -23 -322zM438 1409 q0 56 38 103.5t93 72.5q79 0 118.5 -33t39.5 -79q0 -68 -45 -123.5t-113 -55.5q-55 0 -93 33t-38 82zM494 1436q0 -26 36.5 -51t79.5 -25q31 9 51.5 28.5t20.5 43.5q0 45 -36.5 71.5t-86.5 26.5q-25 -13 -42.5 -40t-22.5 -54z" />
<glyph unicode="&#xe6;" horiz-adv-x="1079" d="M6 197q0 218 51 401q67 235 185 334q109 92 278 92q148 0 199 -10l-12 -60q-2 -12 -10.5 -44.5t-10.5 -45.5q72 86 148 137.5t137 51.5q104 0 104 -82q0 -199 -452 -500q-2 -23 -2 -57q0 -109 31.5 -188t109.5 -144q198 152 452 506l21 -15q-148 -215 -297 -381.5 t-250 -209.5q-53 13 -94 52.5t-64 95.5t-35 116.5t-12 122.5q0 128 37 221l-6 4q-127 -215 -233.5 -358t-247.5 -267q-27 95 -27 228zM133 256q0 -82 12 -119q11 0 32 25t50 68t31 46q77 96 195 318t118 313q-47 13 -127 13q-112 0 -165 -27q-55 -29 -79.5 -97.5 t-43.5 -217.5q-23 -187 -23 -322zM633 520q126 82 224.5 198.5t98.5 190.5q0 21 -12 32t-43 11q-70 0 -126 -61t-89 -154.5t-53 -216.5z" />
<glyph unicode="&#xe7;" horiz-adv-x="634" d="M-102 -377l92 80q44 -80 135 -80q84 0 84 31q0 54 -65.5 107.5t-159.5 86.5l170 144q-27 12 -50.5 36t-47 66.5t-37 115t-13.5 167.5q0 119 37 230.5t93.5 190t121.5 138t123 88.5t96 29q100 0 160 -56l-90 -106q-48 80 -123 80t-140.5 -84t-102 -214.5t-36.5 -269.5 q0 -110 33 -193.5t103 -121.5q109 79 238.5 229.5t246.5 319.5l20 -12q-146 -219 -299.5 -398.5t-263.5 -236.5q-19 -16 -106 -92q61 -16 122.5 -68.5t61.5 -95.5q0 -74 -77 -133.5t-177 -59.5q-47 0 -87 20t-62 62z" />
<glyph unicode="&#xe8;" horiz-adv-x="610" d="M10 369q0 122 47.5 248.5t119.5 221t158.5 154.5t162.5 60q104 0 104 -82q0 -199 -452 -500q-3 -34 -3 -57q0 -231 140 -334q202 156 454 506l21 -15q-148 -215 -297 -381.5t-250 -209.5q-70 17 -118 79.5t-67.5 141.5t-19.5 168zM125 1552q102 3 176 -41 q65 -40 119.5 -102t146.5 -192l-30 -37q-45 52 -72.5 83t-79.5 78t-100 76q-20 12 -50.5 26t-52.5 22t-26 8zM160 520q126 82 224.5 198.5t98.5 190.5q0 24 -12.5 43t-42.5 19q-53 0 -98 -37t-77.5 -102t-55 -142.5t-37.5 -169.5z" />
<glyph unicode="&#xe9;" horiz-adv-x="624" d="M10 369q0 122 47.5 248.5t119.5 221t158.5 154.5t162.5 60q104 0 104 -82q0 -199 -452 -500q-3 -34 -3 -57q0 -231 140 -334q202 156 454 506l21 -15q-148 -215 -297 -381.5t-250 -209.5q-70 17 -118 79.5t-67.5 141.5t-19.5 168zM160 520q126 82 224.5 198.5t98.5 190.5 q0 24 -12.5 43t-42.5 19q-53 0 -98 -37t-77.5 -102t-55 -142.5t-37.5 -169.5zM371 1217q92 130 146.5 192t119.5 102q74 44 176 41l-31 -79q-58 -11 -129 -56q-119 -76 -254 -235z" />
<glyph unicode="&#xea;" horiz-adv-x="610" d="M8 369q0 122 47.5 248.5t119.5 221t158.5 154.5t162.5 60q104 0 104 -82q0 -198 -453 -500q-2 -23 -2 -57q0 -231 140 -334q202 156 454 506l21 -15q-148 -215 -297 -381.5t-250 -209.5q-70 17 -118 79.5t-67.5 141.5t-19.5 168zM158 520q126 82 224.5 198.5t98.5 190.5 q0 24 -12.5 43t-42.5 19q-53 0 -98 -37t-77.5 -102t-55 -142.5t-37.5 -169.5zM246 1348q83 90 148.5 141.5t146.5 71.5q47 -19 123.5 -74t113.5 -94l-71 -68q-51 49 -115 95.5t-109 60.5q-61 -30 -97.5 -56t-119.5 -96z" />
<glyph unicode="&#xeb;" horiz-adv-x="614" d="M10 369q0 122 47.5 248.5t119.5 221t158.5 154.5t162.5 60q104 0 104 -82q0 -199 -452 -500q-3 -34 -3 -57q0 -231 140 -334q202 156 454 506l21 -15q-148 -215 -297 -381.5t-250 -209.5q-70 17 -118 79.5t-67.5 141.5t-19.5 168zM160 520q126 82 224.5 198.5t98.5 190.5 q0 24 -12.5 43t-42.5 19q-53 0 -98 -37t-77.5 -102t-55 -142.5t-37.5 -169.5zM195 1397l110 102q26 -21 38.5 -32.5t28.5 -30.5t31 -43l-104 -113q-6 8 -21.5 27.5t-25.5 31t-26 28.5t-31 30zM582 1397l110 102q59 -38 96 -106l-92 -113q-63 80 -114 117z" />
<glyph unicode="&#xec;" horiz-adv-x="454" d="M-119 1563q102 3 176 -41q66 -40 120.5 -102.5t146.5 -192.5l-31 -37q-45 52 -72.5 83t-79.5 78t-100 76q-20 12 -50.5 26t-52.5 22t-26 8zM35 823l4 23q5 8 15 20.5t40 46t60.5 60t74 51.5t82.5 31q-13 -79 -44 -309.5t-58.5 -383t-61.5 -249.5l5 -7q89 63 203.5 194 t226.5 286l22 -15q-147 -213 -297.5 -380.5t-251.5 -210.5q-4 50 -4 77q0 106 16.5 225t53.5 317t57 329z" />
<glyph unicode="&#xed;" horiz-adv-x="448" d="M25 823l4 23q5 8 15 20.5t40 46t60.5 60t74 51.5t82.5 31q-13 -79 -44 -309.5t-58.5 -383t-61.5 -249.5l4 -7q89 63 203.5 194t226.5 286l23 -15q-147 -213 -297.5 -380.5t-251.5 -210.5q-4 50 -4 77q0 106 16.5 225t53.5 317t57 329zM160 1221q93 131 147 193t119 102 q73 44 176 40l-31 -79q-58 -11 -129 -56q-119 -76 -254 -235z" />
<glyph unicode="&#xee;" horiz-adv-x="452" d="M18 1356q83 90 148.5 141.5t146.5 71.5q47 -19 124 -74t114 -94l-72 -68q-51 49 -114.5 95.5t-108.5 60.5q-61 -30 -97.5 -56t-119.5 -96zM33 823l4 23q5 8 15 20.5t40 46t60.5 60t74 51.5t82.5 31q-13 -79 -44 -309.5t-58.5 -383t-61.5 -249.5l5 -7q89 63 203.5 194 t226.5 286l22 -15q-147 -213 -297.5 -380.5t-251.5 -210.5q-4 50 -4 77q0 106 16.5 225t53.5 317t57 329z" />
<glyph unicode="&#xef;" horiz-adv-x="458" d="M-31 1450l111 102q26 -21 38.5 -32.5t28.5 -30.5t31 -43l-104 -113q-5 6 -22 27t-26 32t-25.5 28t-31.5 30zM41 823l4 23q5 8 15 20.5t40 46t60.5 60t74 51.5t82.5 31q-13 -82 -43.5 -310.5t-58 -381.5t-61.5 -250l4 -7q89 63 203.5 194t226.5 286l22 -15 q-147 -213 -297.5 -380.5t-251.5 -210.5q-4 50 -4 77q0 106 16.5 225t53.5 317t57 329zM356 1450l111 102q59 -38 96 -106l-92 -113q-62 78 -115 117z" />
<glyph unicode="&#xf0;" horiz-adv-x="757" d="M-90 1663l98 78q242 -53 420 -293l213 125l33 -94l-195 -107q95 -157 147 -352t52 -397q0 -105 -25 -198t-77.5 -178t-143 -153.5t-213.5 -111.5q-86 36 -140 153.5t-54 229.5q0 189 90 354.5t227 261.5l33 -37q-108 -94 -168 -231t-60 -283q0 -222 127 -367 q150 65 221.5 204.5t71.5 326.5q0 421 -198 717l-244 -133l-31 73l223 131q-167 209 -407 281z" />
<glyph unicode="&#xf1;" horiz-adv-x="925" d="M37 823l4 23q5 8 15 20.5t40 46t60.5 60t74 51.5t82.5 31q-14 -88 -43 -319.5t-49 -342.5l6 -4q77 149 157.5 278t176.5 239t174 147q16 -13 25.5 -54.5t9.5 -87.5q0 -114 -26.5 -255.5t-66.5 -302.5t-54 -242l6 -5q180 129 430 480l20 -15q-142 -209 -292.5 -378 t-254.5 -213q-4 50 -4 77q0 131 46.5 396t46.5 403l-9 4q-123 -112 -266.5 -351.5t-234.5 -528.5q-48 54 -48 131q0 32 28.5 233.5t57.5 387.5l29 186l-6 4zM199 1356q99 101 235 155q45 0 123.5 -35.5t128.5 -35.5q44 0 108 20.5t95 44.5l16 -22q-59 -61 -114 -95.5 t-129 -52.5q-45 0 -123.5 38t-128.5 38q-42 0 -104 -28t-97 -58z" />
<glyph unicode="&#xf2;" horiz-adv-x="751" d="M16 365q0 145 68 290.5t180.5 251.5t239.5 142q50 -24 90 -93.5t59 -146.5t19 -143q0 -138 -67.5 -283.5t-181 -255t-239.5 -145.5q-78 35 -123 151.5t-45 231.5zM143 1552q102 3 176 -41q66 -40 121 -102.5t146 -191.5l-31 -37q-45 52 -72.5 83t-79.5 78t-100 76 q-20 12 -50.5 26t-52.5 22t-26 8zM152 465q0 -59 2 -97.5t10 -92t27 -105.5t49 -107q297 127 297 502q0 59 -2 97.5t-10 92t-27 105.5t-49 107q-157 -71 -227 -195.5t-70 -306.5z" />
<glyph unicode="&#xf3;" horiz-adv-x="747" d="M10 365q0 145 68 290.5t180.5 251.5t239.5 142q50 -24 90 -93.5t59 -146.5t19 -143q0 -138 -67.5 -283.5t-181 -255t-239.5 -145.5q-78 35 -123 151.5t-45 231.5zM145 465q0 -59 2 -97.5t10 -92t27 -105.5t49 -107q297 127 297 502q0 59 -2 97.5t-10 92t-27 105.5 t-49 107q-157 -71 -227 -195.5t-70 -306.5zM391 1221q93 131 147 193t119 102q73 44 177 40l-31 -79q-58 -11 -129 -56q-119 -76 -254 -235z" />
<glyph unicode="&#xf4;" horiz-adv-x="735" d="M10 365q0 145 68 290.5t180.5 251.5t239.5 142q50 -24 90 -93.5t59 -146.5t19 -143q0 -138 -67.5 -283.5t-181 -255t-239.5 -145.5q-78 35 -123 151.5t-45 231.5zM145 465q0 -59 2 -97.5t10 -92t27 -105.5t49 -107q297 127 297 502q0 59 -2 97.5t-10 92t-27 105.5 t-49 107q-157 -71 -227 -195.5t-70 -306.5zM264 1354q83 90 148.5 141.5t146.5 71.5q47 -19 124 -74t114 -94l-72 -68q-51 49 -114.5 95.5t-108.5 60.5q-61 -30 -97.5 -56t-119.5 -96z" />
<glyph unicode="&#xf5;" horiz-adv-x="745" d="M10 365q0 145 68 290.5t180.5 251.5t239.5 142q50 -24 90 -93.5t59 -146.5t19 -143q0 -138 -67.5 -283.5t-181 -255t-239.5 -145.5q-78 35 -123 151.5t-45 231.5zM131 1323q100 102 236 156q45 0 123 -36t128 -36q43 0 107.5 21t95.5 45l17 -23q-59 -60 -114 -94.5 t-130 -52.5q-45 0 -123.5 37.5t-128.5 37.5q-42 0 -104 -28t-97 -58zM145 465q0 -59 2 -97.5t10 -92t27 -105.5t49 -107q297 127 297 502q0 59 -2 97.5t-10 92t-27 105.5t-49 107q-157 -71 -227 -195.5t-70 -306.5z" />
<glyph unicode="&#xf6;" horiz-adv-x="751" d="M14 365q0 145 68 290.5t180.5 251.5t239.5 142q50 -24 90 -93.5t59 -146.5t19 -143q0 -138 -67.5 -283.5t-181 -255t-239.5 -145.5q-78 35 -123 151.5t-45 231.5zM150 465q0 -59 2 -97.5t10 -92t27 -105.5t49 -107q297 127 297 502q0 119 -16 209t-73 193 q-157 -71 -226.5 -195.5t-69.5 -306.5zM219 1397l111 102q26 -21 38.5 -32.5t28.5 -30.5t31 -43l-104 -113q-5 6 -22 27t-26 32t-25.5 28t-31.5 30zM606 1397l111 102q59 -38 96 -106l-92 -113q-62 78 -115 117z" />
<glyph unicode="&#xf7;" horiz-adv-x="1103" d="M59 596l111 111q127 6 439 -3.5t431 3.5l-110 -111q-190 -11 -295 -9.5t-281 6.5t-295 3zM426 274l147 140q32 -20 64.5 -82.5t62.5 -81.5l-133 -131q-27 19 -67.5 77t-73.5 78zM426 1001l147 142q9 -6 18 -13.5t16 -13.5t15 -15.5t13 -15.5t13 -18t11 -17t11 -18.5 t10 -17.5t10 -19t10 -18l-133 -129q-31 20 -73.5 74.5t-67.5 78.5z" />
<glyph unicode="&#xf8;" horiz-adv-x="747" d="M-25 -27l86 144q-51 114 -51 248q0 145 68 290.5t180.5 251.5t239.5 142q41 -20 75 -72l97 160l43 -31l-109 -182q62 -130 62 -258q0 -138 -67.5 -283.5t-181 -255t-239.5 -145.5q-47 20 -84 73l-76 -129zM145 465q0 -116 11 -189l340 570q-15 47 -54 121 q-157 -71 -227 -195.5t-70 -306.5zM176 195q26 -81 57 -132q297 127 297 502q0 123 -16 205z" />
<glyph unicode="&#xf9;" horiz-adv-x="942" d="M39 823l4 23q5 8 15 20.5t40 46t60.5 60t74 51.5t82.5 31q-35 -179 -54 -287t-37.5 -266.5t-18.5 -282.5q0 -33 10 -84q101 98 219 288t209 425q14 37 22 56.5t22.5 48.5t27 45t30.5 31.5t39 23.5l-145 -832q-9 -48 -31 -110l6 -5q97 69 225.5 218t241.5 313l21 -12 q-152 -229 -314 -414t-270 -231q-4 50 -4 77q0 63 11 151.5t22 150t30.5 160t24.5 122.5l-6 4q-73 -149 -150.5 -277.5t-169 -238.5t-167.5 -147q-23 79 -23 182q0 111 31 338l55 418zM154 1552q102 3 176 -41q65 -40 119.5 -102t146.5 -192l-31 -37q-45 52 -72.5 83 t-79.5 78t-100 76q-20 12 -50.5 26t-52.5 22t-26 8z" />
<glyph unicode="&#xfa;" horiz-adv-x="944" d="M39 823l4 23q5 8 15 20.5t40 46t60.5 60t74 51.5t82.5 31q-35 -179 -54 -287t-37.5 -266.5t-18.5 -282.5q0 -33 10 -84q101 98 219 288t209 425q14 37 22 56.5t22.5 48.5t27 45t30.5 31.5t39 23.5l-145 -832q-9 -48 -31 -110l6 -5q97 69 225.5 218t241.5 313l21 -12 q-152 -229 -314 -414t-270 -231q-4 50 -4 77q0 63 11 151.5t22 150t30.5 160t24.5 122.5l-6 4q-73 -149 -150.5 -277.5t-169 -238.5t-167.5 -147q-23 79 -23 182q0 111 31 338l55 418zM469 1217q92 130 146.5 192t119.5 102q74 44 176 41l-30 -79q-58 -11 -129 -56 q-119 -76 -254 -235z" />
<glyph unicode="&#xfb;" horiz-adv-x="944" d="M39 823l4 23q5 8 15 20.5t40 46t60.5 60t74 51.5t82.5 31q-35 -179 -54 -287t-37.5 -266.5t-18.5 -282.5q0 -33 10 -84q101 98 219 288t209 425q14 37 22 56.5t22.5 48.5t27 45t30.5 31.5t39 23.5l-145 -832q-9 -48 -31 -110l6 -5q97 69 225.5 218t241.5 313l21 -12 q-152 -229 -314 -414t-270 -231q-4 50 -4 77q0 63 11 151.5t22 150t30.5 160t24.5 122.5l-6 4q-73 -149 -150.5 -277.5t-169 -238.5t-167.5 -147q-23 79 -23 182q0 111 31 338l55 418zM315 1354q83 90 148.5 141.5t146.5 71.5q47 -19 124 -74t114 -94l-72 -68 q-51 49 -114.5 95.5t-108.5 60.5q-61 -30 -97.5 -56t-119.5 -96z" />
<glyph unicode="&#xfc;" horiz-adv-x="944" d="M39 823l4 23q5 8 15 20.5t40 46t60.5 60t74 51.5t82.5 31q-35 -179 -54 -287t-37.5 -266.5t-18.5 -282.5q0 -33 10 -84q101 98 219 288t209 425q14 37 22 56.5t22.5 48.5t27 45t30.5 31.5t39 23.5l-145 -832q-9 -48 -31 -110l6 -5q97 69 225.5 218t241.5 313l21 -12 q-152 -229 -314 -414t-270 -231q-4 50 -4 77q0 63 11 151.5t22 150t30.5 160t24.5 122.5l-6 4q-73 -149 -150.5 -277.5t-169 -238.5t-167.5 -147q-23 79 -23 182q0 111 31 338l55 418zM291 1491l110 102q27 -22 39 -32.5t28.5 -30t31.5 -43.5l-105 -113q-6 8 -21.5 27.5 t-25.5 31t-26 28.5t-31 30zM678 1491l110 102q61 -39 97 -106l-92 -113q-62 78 -115 117z" />
<glyph unicode="&#xfd;" horiz-adv-x="862" d="M-31 -422l80 125q92 -27 166 -27t119.5 11t82.5 44t58 93.5t33 159.5q44 345 94 657l-6 4q-73 -149 -150.5 -277.5t-169 -238.5t-167.5 -147q-16 53 -21.5 114.5t1.5 149.5t12 132.5t20 156.5l51 385l-133 -97l4 23q5 8 15 20.5t40 46t60.5 60t74 51.5t82.5 31 q-38 -195 -57.5 -310.5t-37.5 -286t-13 -302.5l8 -21q101 97 218 287t208 426q3 6 16 38.5t18.5 44t19 37t24.5 38t28.5 26.5t36.5 21q-4 -30 -13 -72t-11 -57q-21 -105 -38 -217.5t-39 -290.5t-34 -262q-39 -284 -169 -439t-353 -155q-84 0 -158 18zM485 1217 q91 129 146 191.5t121 102.5q74 44 176 41l-31 -79q-58 -11 -129 -56q-119 -76 -254 -235z" />
<glyph unicode="&#xfe;" horiz-adv-x="747" d="M-266 -510q54 29 86.5 51t59 49.5t40.5 54.5t26.5 71.5t21 94t20.5 128.5v2q24 157 67.5 484t69.5 497l49 319q12 82 58 172.5t114 165.5q67 75 146.5 119.5t158.5 44.5q59 0 101 -10l-84 -111q-58 12 -129 12q-89 0 -146 -90q-19 -30 -35.5 -72.5t-27 -75.5t-22 -92 t-15.5 -83t-13 -89t-10 -71q-16 -100 -38.5 -234t-36.5 -225l6 -2q175 322 403 461q37 -60 50.5 -130t13.5 -196q0 -104 -33 -231t-86 -239t-128.5 -187.5t-152.5 -75.5q-71 0 -131 57q-21 -74 -39.5 -152.5t-27 -117t-23 -76.5t-35.5 -65l6 -10q33 19 158 98l12 -31 q-75 -44 -216.5 -118t-219.5 -119zM143 143q17 -12 61.5 -22t67.5 -10q95 0 147.5 51.5t76.5 173.5t24 344q0 151 -18 199q-25 -11 -68 -50t-93.5 -99t-96 -148.5t-66.5 -180.5q-29 -137 -35 -258z" />
<glyph unicode="&#xff;" horiz-adv-x="860" d="M-31 -422l80 125q92 -27 166 -27t119.5 11t82.5 44t58 93.5t33 159.5q44 345 94 657l-6 4q-73 -149 -150.5 -277.5t-169 -238.5t-167.5 -147q-16 53 -21.5 114.5t1.5 149.5t12 132.5t20 156.5l51 385l-133 -97l4 23q5 8 15 20.5t40 46t60.5 60t74 51.5t82.5 31 q-38 -195 -57.5 -310.5t-37.5 -286t-13 -302.5l8 -21q101 97 218 287t208 426q3 6 16 38.5t18.5 44t19 37t24.5 38t28.5 26.5t36.5 21q-4 -30 -13 -72t-11 -57q-21 -105 -38 -217.5t-39 -290.5t-34 -262q-39 -284 -169 -439t-353 -155q-84 0 -158 18zM276 1413l111 103 q37 -30 57 -51t41 -56l-104 -113q-5 6 -22 27t-26 32t-25.5 28t-31.5 30zM664 1413l110 103q59 -38 96 -107l-92 -113q-63 80 -114 117z" />
<glyph unicode="&#x152;" horiz-adv-x="1632" d="M68 485q0 119 28.5 244t81 242t131 220t172.5 180t212.5 122t244.5 45h395q244 0 312 2l-115 -121q-40 0 -217.5 1t-257.5 1q-17 -42 -21 -69l-69 -441q60 1 146.5 -3.5t123.5 -4.5q102 0 199 21l10 -9q-37 -53 -98 -94t-129 -41q-18 0 -102 2t-173 2q-42 -274 -68 -403 q-13 -63 -47.5 -120.5t-107.5 -127.5l10 -22h463q184 0 299 82l8 -17q-182 -138 -239 -178h-701q-109 0 -195 28.5t-140.5 75t-90.5 110.5t-50.5 131.5t-14.5 141.5zM207 608q0 -88 21.5 -172t65 -158t118.5 -119.5t172 -45.5q67 47 96 109t43 140q43 230 83.5 503 t63.5 385.5t60 172.5q-91 11 -234 4q-139 -42 -252.5 -173t-175 -302.5t-61.5 -343.5z" />
<glyph unicode="&#x153;" horiz-adv-x="1091" d="M10 365q0 145 68 290.5t180.5 251.5t239.5 142q99 -50 151 -252q69 114 164.5 185t169.5 71q104 0 104 -82q0 -199 -452 -500q-4 -23 -4 -70q0 -191 141 -321q201 155 455 508l20 -15q-148 -215 -297 -381.5t-250 -209.5q-75 18 -122 86.5t-68 164.5 q-70 -94 -155.5 -159.5t-176.5 -91.5q-78 35 -123 151.5t-45 231.5zM145 465q0 -59 2 -97.5t10 -92t27 -105.5t49 -107q297 127 297 502q0 59 -2 97.5t-10 92t-27 105.5t-49 107q-157 -71 -227 -195.5t-70 -306.5zM647 520q125 83 223.5 199t98.5 190q0 43 -56 43 q-205 0 -266 -432z" />
<glyph unicode="&#x178;" horiz-adv-x="1243" d="M-174 -207l119 86q132 -123 260 -123q99 0 193 121.5t261 437.5q-13 50 -60.5 240t-75 292t-71 250t-81.5 239t-72 134q-136 0 -202 -104t-66 -326l-142 -110q0 157 57.5 299.5t160 231.5t221.5 89q40 0 78 -31t69 -81t61 -126.5t54 -154t49 -178t43.5 -184.5t40.5 -186 q6 -29 9.5 -44.5t8.5 -39t9 -42.5q16 29 149 262.5t216 395t83 202.5q0 20 -13 32t-55.5 19t-119.5 7l-2 8l153 92h80q113 0 113 -82q0 -52 -88.5 -227.5t-223 -412t-137.5 -242.5q-104 -194 -177 -320t-142.5 -228t-133 -166.5t-131 -111.5t-153.5 -86q-76 10 -167.5 56.5 t-174.5 111.5zM526 1765l111 103q37 -30 57 -51t41 -56l-104 -112q-5 6 -17.5 21.5t-20 24.5t-19.5 22.5t-24 25t-24 22.5zM913 1765l111 103q59 -38 96 -107l-92 -112q-60 76 -115 116z" />
<glyph unicode="&#x2c6;" d="M94 1354q83 90 148.5 141.5t146.5 71.5q47 -19 124 -74t114 -94l-72 -68q-51 49 -114.5 95.5t-108.5 60.5q-61 -30 -97.5 -56t-119.5 -96z" />
<glyph unicode="&#x2dc;" horiz-adv-x="847" d="M68 1274q100 103 235 156q45 0 123.5 -36t128.5 -36q44 0 108 20.5t95 44.5l16 -22q-59 -61 -114.5 -95.5t-129.5 -52.5q-45 0 -123 38t-128 38q-42 0 -104 -28t-97 -58z" />
<glyph unicode="&#x2000;" horiz-adv-x="988" />
<glyph unicode="&#x2001;" horiz-adv-x="1976" />
<glyph unicode="&#x2002;" horiz-adv-x="988" />
<glyph unicode="&#x2003;" horiz-adv-x="1976" />
<glyph unicode="&#x2004;" horiz-adv-x="658" />
<glyph unicode="&#x2005;" horiz-adv-x="494" />
<glyph unicode="&#x2006;" horiz-adv-x="329" />
<glyph unicode="&#x2007;" horiz-adv-x="329" />
<glyph unicode="&#x2008;" horiz-adv-x="247" />
<glyph unicode="&#x2009;" horiz-adv-x="395" />
<glyph unicode="&#x200a;" horiz-adv-x="109" />
<glyph unicode="&#x2010;" horiz-adv-x="819" d="M92 600l58 109q291 -3 616 65l-64 -110q-293 -67 -610 -64z" />
<glyph unicode="&#x2011;" horiz-adv-x="819" d="M92 600l58 109q291 -3 616 65l-64 -110q-293 -67 -610 -64z" />
<glyph unicode="&#x2012;" horiz-adv-x="819" d="M92 600l58 109q291 -3 616 65l-64 -110q-293 -67 -610 -64z" />
<glyph unicode="&#x2013;" horiz-adv-x="1073" d="M72 563l110 111h772l-67 -111h-815z" />
<glyph unicode="&#x2014;" horiz-adv-x="1470" d="M100 569l111 111h1206l-110 -111h-1207z" />
<glyph unicode="&#x2018;" horiz-adv-x="454" d="M133 1415q4 33 57 135t144 224l31 -23q-109 -162 -109 -199q13 -19 69.5 -78.5t67.5 -91.5q-17 -20 -48 -59t-48.5 -57.5t-26.5 -20.5q-44 35 -85 90t-52 80z" />
<glyph unicode="&#x2019;" horiz-adv-x="483" d="M164 1636q18 20 48.5 59t48 58t26.5 21q44 -35 85 -90t52 -80q-4 -33 -57 -135t-144 -224l-30 23q108 161 108 198q-13 19 -69.5 78.5t-67.5 91.5z" />
<glyph unicode="&#x201a;" horiz-adv-x="669" d="M205 170q17 20 48 59t48.5 57.5t26.5 20.5q44 -35 85 -90t52 -80q-4 -33 -57 -134.5t-144 -223.5l-31 22q109 162 109 199q-13 19 -69.5 78.5t-67.5 91.5z" />
<glyph unicode="&#x201c;" horiz-adv-x="890" d="M133 1415q4 33 57 135t144 224l31 -23q-109 -162 -109 -199q13 -19 69.5 -78.5t67.5 -91.5q-17 -20 -48 -59t-48.5 -57.5t-26.5 -20.5q-44 35 -85 90t-52 80zM586 1415q4 34 56.5 135.5t143.5 223.5l31 -23q-108 -161 -108 -199q13 -19 69.5 -78.5t67.5 -91.5 q-17 -20 -48 -59t-48.5 -57.5t-26.5 -20.5q-44 35 -85 90t-52 80z" />
<glyph unicode="&#x201d;" horiz-adv-x="995" d="M137 1636q18 20 48.5 59t48 58t26.5 21q44 -35 85 -90t52 -80q-4 -34 -56.5 -135.5t-143.5 -223.5l-31 23q108 161 108 198q-13 19 -69.5 78.5t-67.5 91.5zM590 1636q18 20 48.5 59t48 58t26.5 21q44 -35 85 -90t52 -80q-4 -33 -57 -135t-144 -224l-31 23 q109 162 109 198q-13 19 -69.5 78.5t-67.5 91.5z" />
<glyph unicode="&#x201e;" horiz-adv-x="1091" d="M195 170q18 20 48.5 58.5t47.5 57.5t26 21q44 -35 85.5 -90.5t52.5 -79.5q-4 -33 -57 -134.5t-144 -223.5l-31 22q109 162 109 199q-13 19 -69.5 78.5t-67.5 91.5zM647 170q17 20 48 59t48.5 57.5t26.5 20.5q44 -35 85 -90t52 -80q-4 -34 -56.5 -135t-143.5 -223l-31 22 q108 161 108 199q-13 19 -69.5 78.5t-67.5 91.5z" />
<glyph unicode="&#x2022;" horiz-adv-x="1069" d="M264 578q0 145 92.5 236t218.5 93q105 1 174.5 -72.5t69.5 -183.5q0 -79 -29 -143t-75 -102.5t-100 -59t-109 -20.5q-104 0 -173 72t-69 180z" />
<glyph unicode="&#x2026;" horiz-adv-x="1490" d="M125 133l147 141q64 -51 138 -165l-144 -132q-3 4 -55 65t-86 91zM582 133l147 141q62 -49 137 -165l-143 -132q-3 4 -55 65t-86 91zM1032 133l148 141q62 -49 137 -165l-143 -132q-2 2 -55 64t-87 92z" />
<glyph unicode="&#x202f;" horiz-adv-x="395" />
<glyph unicode="&#x2039;" horiz-adv-x="1005" d="M193 569q145 103 258 217t174 203l86 -100q-57 -65 -169.5 -163.5t-205.5 -156.5q93 -54 202 -141.5t164 -144.5l-77 -119q-63 88 -176.5 198t-255.5 207z" />
<glyph unicode="&#x203a;" horiz-adv-x="890" d="M219 889l80 94l10 -2q63 -90 173.5 -201t254.5 -211q-143 -96 -255.5 -206t-176.5 -199l-80 119q58 58 167.5 144.5t203.5 139.5h-2q-92 58 -205.5 157.5t-169.5 164.5z" />
<glyph unicode="&#x205f;" horiz-adv-x="494" />
<glyph unicode="&#x20ac;" horiz-adv-x="1292" d="M88 467l70 104h121q11 97 26 166q-41 0 -110 1t-84 1l69 105h152q42 140 109 262t156 220t204.5 155t242.5 57q143 0 279 -41l-119 -154q-115 81 -231 107q-115 -2 -225.5 -87t-190.5 -222t-117 -297h412l-53 -74q-130 -29 -377 -33q-8 -52 -8 -116q0 -34 2 -50h413 l-53 -73q-129 -29 -346 -33q28 -132 103.5 -228t193.5 -124q141 25 360 190l19 -16q-74 -93 -194.5 -184t-221.5 -119q-86 0 -157 28t-118 74.5t-79.5 109t-47 129.5t-14.5 138v2q-72 2 -186 2z" />
<glyph unicode="&#x2122;" horiz-adv-x="1366" d="M61 1221v94q0 67 74 113.5t213 46.5h264l2 -9l-53 -55h-141q-18 -61 -30 -131t-22 -153.5t-14 -108.5q-13 -81 -39 -107l4 -12q21 0 49.5 7.5t45.5 21.5l18 -21q-68 -59 -176 -59h-29q-5 0 -21 1t-20 1l4 27q29 10 48.5 24.5t29 36t13.5 37t8 43.5l45 328q5 42 18 55 l-4 10q-17 0 -53.5 3t-63.5 3q-49 0 -75.5 -21.5t-26.5 -74.5v-53l-59 -51zM502 866l47 68q18 -6 41 -6q43 0 68.5 25t54.5 98q43 106 125 352q-6 0 -32.5 3t-39.5 3q-18 0 -29.5 -1.5t-30 -11.5t-29.5 -28.5t-19.5 -56t-8.5 -90.5l-76 -54q0 62 14 115t44 98t84 71t127 26 q29 0 90 -9q1 -25 10.5 -147.5t9.5 -190.5q0 -17 -1 -37l-1 -20l8 -2q33 75 75 156.5t97.5 162t90.5 89.5l-7 -101q-3 -38 -9 -109.5t-9.5 -129t-3.5 -115.5q0 -55 2 -90q48 28 86 72l23 -27q-58 -60 -177 -131q-6 59 -6 172q0 133 17 289l-9 4q-20 -24 -52.5 -96.5 t-82.5 -180t-102 -194.5l-8 2q-9 92 -9 295v174l-8 2l-110 -289q-66 -170 -224 -170q-20 0 -30 10z" />
<glyph unicode="&#x25fc;" horiz-adv-x="1054" d="M0 0v1055h1055v-1055h-1055z" />
<glyph unicode="&#xfb01;" horiz-adv-x="923" d="M-236 -506q63 26 105.5 56t65.5 56t37.5 70t19 73t11.5 91t13 101q27 169 136 981l-183 -15q43 88 45 88q72 11 156 19q12 102 20 153q35 259 170 417.5t310 158.5h100l-82 -109h-102q-58 0 -102.5 -20.5t-73.5 -59.5t-48.5 -81.5t-31 -101t-17.5 -102.5t-12 -101 t-10 -83q-8 -38 -10 -65l499 35q-13 -79 -44 -309.5t-58.5 -383t-61.5 -249.5l5 -7q89 63 203.5 194t226.5 286l22 -15q-147 -213 -297.5 -380.5t-251.5 -210.5q-4 50 -4 77q0 107 17 225.5t59 339.5t66 369q-32 -16 -164 -35t-228 -26q-21 -177 -70 -510t-67 -469 q-4 -21 -9.5 -63.5t-10 -63t-14.5 -53t-27 -61.5t-43 -60l10 -10q32 17 160 98l16 -35l-428 -252z" />
<glyph unicode="&#xfb02;" horiz-adv-x="952" d="M-236 -506q63 26 105.5 56t65.5 56t37.5 70t19 73t11.5 91t13 101q27 169 136 981l-183 -15q43 88 45 88q72 11 156 19q24 199 65.5 332.5t114.5 224.5t180.5 131.5t262.5 40.5q152 0 247 -25q23 11 54.5 17.5t51.5 6.5l21 1h-2h2q59 0 101 -10l-84 -111q-58 12 -129 12 q-38 0 -71 -17.5t-56 -43t-43 -69.5t-32 -79.5t-24 -92t-17.5 -89t-13 -87.5t-10.5 -71q-14 -89 -40.5 -316.5t-55.5 -390.5t-71 -267l6 -5q97 69 225.5 218t241.5 313l20 -12q-152 -229 -314 -414t-270 -231q-4 50 -4 77q0 38 3.5 88t12 119.5t16 124.5t22 149t22.5 144 t25.5 158.5t23.5 146.5q-45 -16 -167 -33t-214 -24q-21 -177 -70 -510t-67 -469q-4 -21 -9.5 -63.5t-10 -63t-14.5 -53t-27 -61.5t-43 -60l10 -10q32 17 160 98l16 -35l-428 -252zM281 1020q135 11 378 27q20 115 31 194q15 111 88 230.5t174 193.5q-230 -2 -336.5 -18.5 t-177.5 -65.5q-28 -20 -48 -50t-32.5 -61.5t-23 -86.5t-16.5 -98t-17 -124.5t-20 -140.5z" />
<glyph unicode="&#xfb03;" horiz-adv-x="1468" d="M-358 -428l77 113q66 -17 125 -17q195 0 236 316q16 125 121 895q-33 -4 -107 -14.5t-90 -12.5q43 88 45 88q163 23 164 23l29 204q35 259 170 417.5t309 158.5h100l-82 -109h-131q-44 0 -80 -19.5t-61 -47.5t-45 -75.5t-31.5 -86t-21.5 -98t-14 -92.5t-9 -87 q-1 -7 -2 -22t-2 -21q-6 -55 -12 -108q80 10 159.5 18t140.5 12.5t77 6.5q12 102 20 153q35 259 170 417.5t309 158.5q113 0 170 -31l-84 -110q-74 32 -170 32q-58 0 -102.5 -20.5t-73.5 -59.5t-48.5 -81.5t-31 -101t-17.5 -102.5t-12 -101t-10 -83q-8 -38 -10 -65l500 35 q-13 -79 -44 -309.5t-58.5 -383t-61.5 -249.5l4 -7q89 63 203.5 194t226.5 286l23 -15q-147 -213 -297.5 -380.5t-251.5 -210.5q-4 50 -4 77q0 107 16.5 225t58.5 341t66 368q-32 -16 -163.5 -35t-227.5 -26q-16 -141 -39.5 -302t-54 -359.5t-47.5 -317.5q-2 -17 -6.5 -53.5 t-7 -52.5t-9.5 -45.5t-15.5 -49.5t-24.5 -47t-38 -53l10 -10q32 17 160 98l17 -35l-428 -252l-23 43q63 26 105.5 56t65.5 56t37.5 70t19 73t11.5 91t13 101q23 146 44.5 299.5t50.5 376t40 305.5q-338 -26 -369 -29q-24 -205 -98 -739q-42 -294 -168 -444t-321 -150 q-44 0 -90 12z" />
<glyph unicode="&#xfb04;" horiz-adv-x="1492" d="M-358 -428l77 113q66 -17 125 -17q195 0 236 316q21 164 121 893q-24 -2 -91.5 -7.5t-107.5 -7.5q41 96 43 96q34 2 94 7t74 6l29 196q41 299 207 459q62 60 145.5 88.5t226.5 28.5l-82 -109q-126 0 -175 -10.5t-75 -34.5q-37 -34 -64 -89.5t-42.5 -131.5t-22 -123 t-14.5 -123q-1 -7 -2 -19t-2 -18q-2 -18 -12 -106q241 18 397 35q24 199 65.5 332.5t114.5 224.5t180.5 131.5t262.5 40.5q152 0 247 -25q23 11 54.5 17.5t52.5 6.5l20 1q59 0 101 -10l-84 -111q-58 12 -129 12q-31 0 -58 -11t-48 -29t-39.5 -46.5t-31.5 -57t-25 -67.5 t-19.5 -71t-15 -74t-11.5 -70.5t-9.5 -66.5t-8.5 -56q-14 -88 -41 -316t-56 -391t-71 -267l6 -5q97 69 225.5 218t241.5 313l20 -12q-152 -229 -314 -414t-270 -231q-4 50 -4 77q0 38 3.5 88t12 119.5t16 124.5t22 149t22.5 144t25.5 158.5t23.5 146.5q-45 -16 -167 -33 t-214 -24q-16 -141 -39.5 -302t-54 -359.5t-47.5 -317.5q-2 -15 -7.5 -62.5t-9 -64.5t-13.5 -51.5t-27 -63t-43 -59.5l10 -10q32 17 160 98l16 -35l-428 -252l-22 43q47 20 82.5 41.5t59.5 41.5t40.5 47t25.5 49.5t15.5 57t9.5 61.5t8 71t10 78q27 169 136 981 q-124 -14 -390 -35q-26 -220 -98 -733q-42 -294 -168 -444t-321 -150q-44 0 -90 12zM838 1020q130 10 379 27q16 90 30 194q15 111 88 230.5t174 193.5q-230 -2 -336.5 -18.5t-177.5 -65.5q-28 -20 -48 -50t-32.5 -61.5t-23 -86.5t-16.5 -98t-17 -124.5t-20 -140.5z" />
</font>
</defs>
</svg>
